# Blender v2.92.0 OBJ File: 'HalfRock.blend'
# www.blender.org
mtllib HalfRock_01.mtl
o ICOçƒ
v 0.269821 -2.646548 -0.074420
v 1.855162 -1.006244 1.416694
v -2.131091 -1.389621 -0.135470
v -0.621873 -1.006245 -2.253349
v 2.249447 -1.036542 -1.146089
v 1.115080 1.433818 2.251971
v -2.209405 1.070204 -1.482217
v 0.621873 0.961547 -2.096579
v 2.210819 1.143246 -0.219721
v -0.561258 -2.254763 1.401755
v 0.761243 -2.254763 0.972041
v 0.591455 -1.182910 1.820276
v 2.200808 -1.337277 0.065222
v 1.230250 -2.264915 -0.808469
v -0.913070 -2.310514 -0.074420
v -1.745786 -1.573642 1.124993
v -0.095704 -2.310521 -1.199409
v -1.828996 -1.656602 -1.124993
v 0.591455 -1.182910 -2.152889
v 0.000000 0.000000 2.250000
v 1.862691 -0.021540 2.132418
v -2.242460 0.028459 0.686060
v -2.047293 0.105880 1.876961
v -2.012934 0.038630 -2.231420
v -2.139880 0.000000 -0.695278
v 1.905832 0.000000 -1.781589
v 0.010539 0.000000 -2.361297
v -0.591455 1.507022 1.820276
v -2.352537 1.304607 0.011303
v -1.172744 1.246870 -1.977739
v 1.701340 1.637972 -1.553093
v 0.734579 2.107499 2.088724
v 2.031948 2.107493 1.135154
v -0.960114 2.575714 0.920879
v -1.400561 2.359070 -0.533138
v 0.320078 2.232027 -1.333368
v -0.182762 -2.600805 0.855103
v 1.774833 -1.810070 0.939079
v 0.011838 -1.349451 2.061033
v 2.117591 -1.138572 0.675270
v 1.926579 -2.083053 -0.973472
v -1.987603 -0.917676 0.370335
v 1.261531 -1.367560 -1.868585
v 2.134773 -0.302905 0.939080
v 2.274530 0.640128 -0.567360
v -0.885710 -1.004451 1.965328
v 1.482816 0.907076 2.258195
v -2.076169 -0.503118 0.347639
v -1.758330 1.161961 1.885815
v -1.480849 -0.447247 -2.293225
v -2.307950 0.235140 -1.006996
v 2.100409 -0.302905 -1.501585
v 0.310936 0.503122 -2.081980
v -1.694962 1.830641 1.653234
v -2.261435 1.471214 -0.640243
v 0.015209 1.049880 -2.049736
v 1.978803 1.231582 -0.782217
v 0.728583 1.661395 2.120717
v 1.213471 2.729541 0.900832
v -1.736131 2.106353 1.101216
v -2.001473 2.103632 -1.090461
v 0.493699 1.460109 -1.984521
v -0.625398 -1.745106 1.508719
v 0.478488 -2.600805 0.640247
v 1.265013 -1.094602 1.799896
v 2.134316 -1.339850 -0.601879
v -1.394541 -1.546070 1.531623
v -0.223878 -1.856657 -1.593894
v -1.966523 -1.856233 -0.473017
v -0.015209 -1.094577 -1.995332
v 0.253238 0.905687 2.323759
v 1.940031 -0.503122 1.779743
v -2.136195 0.889100 0.939080
v -1.546969 -1.004451 1.750472
v -2.186451 -0.793127 -0.345702
v 0.972195 0.503122 -1.867124
v -0.310936 -0.503122 -2.278671
v 2.201418 1.094571 0.562497
v 0.015209 1.536755 2.061233
v -1.997501 1.374141 0.591441
v -1.691074 1.158537 -1.800914
v 1.075085 1.076024 -1.807205
v 1.796036 1.597111 -0.219721
v 0.319371 2.604283 1.060534
v -0.634400 2.625377 -0.023571
v 0.610826 2.715178 -0.407201
v 1.518573 2.003501 -0.990596
v -0.497084 2.775418 -0.794445
v -0.268314 2.354790 -1.813558
v -1.478992 2.023807 -1.543809
v -1.400561 2.540040 0.162137
v -1.879052 1.993538 -0.185500
v -1.879052 2.194684 0.509775
v -0.131799 2.457364 1.468727
v -0.774215 2.121382 1.494359
v -0.112965 1.938520 1.669053
v 1.322265 2.107496 1.838598
v 1.400092 1.699405 1.989757
v 2.181623 1.830967 1.449580
v 1.958314 0.503769 -1.223711
v 2.092803 0.000000 -1.257783
v 1.435472 0.591453 -1.881215
v -0.508352 0.470616 -2.179408
v -1.415380 0.090225 -2.141535
v -2.139880 0.000000 0.000000
v -0.956986 0.591455 1.820282
v -1.362676 -0.018316 2.102510
v -0.295727 0.591455 2.035138
v 2.074008 0.951053 1.743127
v 2.228107 0.000000 1.312105
v 1.828285 -0.730880 -2.030720
v 0.295727 -0.591455 -2.163352
v -2.158700 0.061231 -1.930328
v -1.944125 -0.535578 -1.898741
v -1.954434 -0.881463 -0.976676
v -1.987466 0.058666 1.487689
v -2.128083 -0.995464 0.943970
v -2.010246 -1.092782 1.355988
v 0.906407 -0.099360 2.225120
v 0.295727 -0.591455 2.035138
v 1.017970 -0.425837 1.971990
v 2.196395 0.248671 -0.057222
v 2.231801 -0.365883 0.395184
v 0.565547 -2.310520 -0.984552
v 0.382786 -1.944989 -1.547052
v -0.806067 -2.035179 -1.174233
v -1.365659 -2.197773 -0.562497
v -1.773499 -1.847978 0.538993
v -0.774208 -2.432788 0.855103
v -1.364816 -1.847982 1.101487
v 1.917753 -1.898401 -0.347638
v 1.917753 -1.898401 0.347638
v 0.956976 -2.342650 0.000000
v 0.112965 -1.548441 1.472633
v 0.099992 -2.254763 1.186898
v 0.797722 -1.805299 1.470179
v 1.332306 2.199988 -0.542162
v 0.640908 1.854598 -1.719523
v 0.993307 1.684656 -1.756677
v 1.543770 -0.021540 2.187775
v 0.383795 0.045885 2.327868
v 0.818492 0.894699 2.375835
v 2.262850 1.310794 1.457809
v 2.184924 0.544869 1.439166
v 1.838595 1.085541 2.000937
v -1.325974 1.211048 1.890325
vt 0.818181 0.000000
vt 0.795454 0.039365
vt 0.840908 0.039365
vt 0.727272 0.157461
vt 0.704545 0.118096
vt 0.681818 0.157461
vt 0.704545 0.196826
vt 0.181818 0.157461
vt 0.136363 0.157461
vt 0.159091 0.196826
vt 0.545454 0.157461
vt 0.500000 0.157461
vt 0.522727 0.196826
vt 0.749999 0.196826
vt 0.886363 0.118096
vt 0.863635 0.157461
vt 0.886363 0.196826
vt 0.204545 0.196826
vt 0.363636 0.157461
vt 0.340909 0.196826
vt 0.386363 0.196826
vt 0.795454 0.275556
vt 0.749999 0.354286
vt 0.818181 0.314921
vt 0.954545 0.314921
vt 0.977273 0.354286
vt 0.136364 0.314921
vt 0.272727 0.314921
vt 0.227273 0.314921
vt 0.250000 0.354286
vt 0.454545 0.314921
vt 0.409091 0.314921
vt 0.431818 0.354286
vt 0.636363 0.314921
vt 0.590909 0.314921
vt 0.613636 0.354286
vt 0.409090 0.393651
vt 0.363636 0.393651
vt 0.386363 0.433017
vt 0.386363 0.354286
vt 0.363636 0.314921
vt 0.318182 0.314921
vt 0.340909 0.354286
vt 0.227273 0.393651
vt 0.181818 0.393651
vt 0.204545 0.433017
vt 0.204545 0.354286
vt 0.181818 0.314921
vt 0.159091 0.354286
vt 0.954545 0.393651
vt 0.909090 0.393651
vt 0.931818 0.433017
vt 0.931818 0.354286
vt 0.909091 0.314921
vt 0.863636 0.314921
vt 0.886363 0.354286
vt 0.772726 0.393651
vt 0.727272 0.393651
vt 0.659090 0.196826
vt 0.545454 0.236191
vt 0.636363 0.236191
vt 0.500000 0.236191
vt 0.477272 0.275556
vt 0.522727 0.275556
vt 0.409090 0.236191
vt 0.386363 0.275556
vt 0.431818 0.275556
vt 0.363636 0.236191
vt 0.943182 0.295238
vt 0.977273 0.275556
vt 0.931818 0.275556
vt 0.954545 0.236191
vt 0.909090 0.236191
vt 0.454545 0.157461
vt 0.409091 0.157461
vt 0.431818 0.196826
vt 0.318182 0.236191
vt 0.295454 0.196826
vt 0.272727 0.236191
vt 0.272727 0.157461
vt 0.227272 0.157461
vt 0.250000 0.196826
vt 0.136363 0.236191
vt 0.090909 0.236191
vt 0.113636 0.275556
vt 0.113636 0.196826
vt 0.090909 0.157461
vt 0.045454 0.157461
vt 0.068182 0.196826
vt 0.840908 0.196826
vt 0.840908 0.236191
vt 0.863635 0.236191
vt 0.818181 0.157461
vt 0.772726 0.157461
vt 0.795454 0.196826
vt 0.681818 0.314921
vt 0.409090 0.078731
vt 0.386363 0.118096
vt 0.431818 0.118096
vt 0.318182 0.078731
vt 0.295454 0.118096
vt 0.340909 0.118096
vt 0.250000 0.118096
vt 0.227273 0.078731
vt 0.136363 0.078731
vt 0.090909 0.078731
vt 0.113636 0.118096
vt 0.045454 0.078731
vt 0.022727 0.118096
vt 0.068182 0.118096
vt 0.636363 0.157461
vt 0.613636 0.118096
vt 0.590909 0.157461
vt 0.659090 0.118096
vt 0.681818 0.078731
vt 0.659090 0.039365
vt 0.636363 0.078731
vt 0.863635 0.078731
vt 0.840908 0.118096
vt 0.818181 0.078731
vt 0.772726 0.078731
vt 0.749999 0.118096
vt 0.795454 0.118096
vt 0.590909 0.078731
vt 0.568181 0.118096
vt 0.068182 0.039365
vt 0.454545 0.078731
vt 0.522727 0.118096
vt 0.727272 0.236191
vt 0.772726 0.236191
vt 0.795454 0.236191
vt 0.818181 0.236191
vt 0.818181 0.275556
vt 0.840908 0.275556
vt 0.022727 0.196826
vt 0.045454 0.236191
vt 0.068182 0.275556
vt 0.227273 0.236191
vt 0.250000 0.275556
vt 0.477272 0.196826
vt 0.727272 0.275556
vt 0.738636 0.255874
vt 0.749999 0.275556
vt 0.795454 0.354286
vt 0.772727 0.275556
vt 0.886363 0.275556
vt 0.181818 0.236191
vt 0.568181 0.354286
vt 0.500000 0.354286
vt 0.500000 0.393651
vt 0.500000 0.314921
vt 0.568181 0.275556
vt 0.545454 0.314921
vt 0.613636 0.275556
vt 0.704545 0.354286
vt 0.659090 0.354286
vt 0.681818 0.393651
vt 0.159091 0.433017
vt 0.568181 0.433017
vt 0.704545 0.433017
vt 0.840908 0.354286
vt 0.863635 0.393651
vt 0.113636 0.354286
vt 0.136363 0.393651
vt 0.522727 0.433017
vt 0.295454 0.354286
vt 0.318182 0.393651
vt 0.340909 0.433017
vt 0.511363 0.334604
vt 0.590909 0.393651
vt 0.931818 0.196826
vt 0.477272 0.354286
vt 0.556818 0.373969
vn 0.0190 -0.9981 0.0584
vn 0.8793 -0.3052 0.3657
vn 0.9272 -0.1300 0.3514
vn -0.8956 -0.1688 0.4116
vn 0.6238 -0.2345 -0.7455
vn 0.9497 -0.2722 0.1552
vn -0.3021 -0.5749 0.7604
vn -0.9850 -0.0315 0.1699
vn 0.0097 -0.0563 -0.9984
vn 0.4557 0.3279 0.8275
vn -0.9594 0.2171 0.1800
vn -0.9482 0.2599 -0.1824
vn -0.0452 0.2080 -0.9771
vn 0.7240 0.6617 -0.1947
vn 0.2218 0.8342 -0.5048
vn 0.4031 0.8743 -0.2704
vn -0.3552 0.3452 -0.8687
vn -0.1665 0.9542 -0.2484
vn -0.6780 0.7114 -0.1852
vn -0.8493 0.1723 0.4991
vn -0.0526 0.9567 0.2862
vn -0.3319 0.6841 0.6495
vn -0.3186 0.6081 0.7271
vn 0.3616 0.3837 0.8497
vn 0.9883 0.1438 -0.0513
vn 0.9964 -0.0051 -0.0849
vn 0.0015 -0.1650 -0.9863
vn 0.0886 0.4425 -0.8924
vn -0.1345 0.2247 -0.9651
vn 0.0022 -0.1110 0.9938
vn -0.1839 0.5110 0.8397
vn -0.2691 -0.1514 -0.9512
vn -0.8592 -0.3296 -0.3912
vn -0.9651 -0.1107 -0.2375
vn -0.9529 0.0289 0.3020
vn -0.9522 -0.0298 0.3040
vn -0.5911 -0.5895 0.5505
vn -0.1365 -0.3978 0.9072
vn 0.0593 -0.2282 0.9718
vn 0.9845 0.0004 0.1756
vn -0.0385 -0.6617 -0.7488
vn -0.2852 -0.6734 -0.6821
vn 0.0183 -0.9703 -0.2411
vn -0.4952 -0.8679 -0.0402
vn -0.4431 -0.2372 0.8645
vn 0.9142 -0.3952 -0.0896
vn 0.8928 -0.4504 0.0000
vn 0.6574 -0.7271 0.1981
vn 0.0990 -0.1924 0.9763
vn 0.2879 -0.3637 0.8859
vn 0.3326 -0.7122 0.6182
vn 0.0877 -0.4661 0.8804
vn 0.3853 -0.5846 0.7140
vn 0.5287 -0.4720 0.7054
vn -0.1956 -0.5292 0.8256
vn -0.1353 -0.3694 0.9194
vn 0.2100 -0.7335 0.6464
vn 0.2571 -0.9012 0.3490
vn 0.3913 -0.8493 0.3545
vn 0.4371 -0.8973 0.0615
vn 0.4197 -0.9077 0.0000
vn 0.3672 -0.9168 0.1568
vn 0.9566 -0.2883 0.0417
vn 0.9425 -0.3168 0.1068
vn 0.3032 -0.9128 0.2736
vn -0.4943 -0.7272 0.4763
vn -0.1929 -0.8093 0.5547
vn -0.1179 -0.5508 0.8262
vn -0.5246 -0.7612 0.3812
vn -0.5539 -0.7289 0.4024
vn -0.5311 -0.7227 0.4423
vn -0.9703 -0.1982 0.1387
vn -0.5019 -0.7917 -0.3483
vn -0.3207 -0.8006 -0.5061
vn -0.2723 -0.9584 -0.0854
vn -0.2841 -0.5478 -0.7869
vn 0.0004 -0.4662 -0.8847
vn 0.2742 -0.5059 -0.8179
vn 0.1876 -0.7947 -0.5773
vn 0.6267 -0.3112 -0.7144
vn 0.9810 -0.0927 -0.1702
vn 0.9998 -0.0141 0.0111
vn 0.1208 -0.5738 0.8100
vn 0.1863 -0.1797 0.9659
vn 0.5089 -0.5585 0.6550
vn 0.1183 -0.5829 0.8039
vn 0.1983 -0.5574 0.8062
vn 0.1457 -0.2726 0.9510
vn -0.0833 0.2664 0.9602
vn -0.5705 -0.3421 0.7466
vn -0.5314 -0.4416 0.7229
vn -0.2795 -0.4263 0.8603
vn -0.9870 0.0374 -0.1562
vn -0.9621 -0.0121 0.2723
vn -0.8449 -0.5216 0.1185
vn -0.9331 0.0663 0.3533
vn -0.9488 0.2611 -0.1775
vn -0.9387 -0.0914 -0.3324
vn -0.9341 -0.1547 -0.3218
vn -0.9578 -0.1704 -0.2314
vn -0.9783 -0.2073 0.0046
vn -0.9296 -0.3416 -0.1385
vn -0.9869 -0.1470 -0.0662
vn -0.1088 0.1617 -0.9808
vn -0.8024 -0.5965 -0.0173
vn 0.1455 -0.2502 -0.9572
vn 0.1191 -0.3799 -0.9173
vn 0.3458 -0.2591 -0.9018
vn 0.0886 0.0267 -0.9957
vn 0.3005 -0.2333 -0.9248
vn 0.1099 0.3102 -0.9443
vn 0.9940 -0.1001 -0.0440
vn 0.9987 0.0257 -0.0432
vn 0.8835 -0.1010 0.4574
vn 0.1133 0.6338 0.7652
vn 0.4393 0.3291 0.8359
vn -0.3715 0.0967 0.9234
vn -0.5260 0.1499 0.8372
vn -0.1299 0.3387 0.9319
vn -0.2596 0.5425 0.7989
vn -0.1068 0.2919 0.9505
vn -0.0475 0.3322 0.9420
vn -0.9747 -0.1602 0.1555
vn -0.7607 0.5076 0.4047
vn -0.9288 0.1972 0.3139
vn -0.9936 0.0648 -0.0922
vn -0.9744 0.1652 -0.1525
vn -0.5352 0.3203 -0.7817
vn -0.3469 0.2025 -0.9158
vn 0.3020 0.7950 -0.5261
vn -0.8141 0.3969 -0.4239
vn -0.9862 0.0232 -0.1638
vn 0.1127 0.3281 -0.9379
vn -0.0743 0.0186 -0.9971
vn 0.1126 0.1191 -0.9865
vn -0.0198 0.2355 -0.9717
vn -0.0517 0.1131 -0.9922
vn 0.5397 -0.0089 -0.8418
vn 0.7825 -0.0036 -0.6227
vn 0.7743 0.2461 -0.5829
vn 0.7743 0.5692 -0.2764
vn 0.8897 0.3304 -0.3151
vn 0.8488 0.2565 -0.4622
vn 0.9529 0.1373 -0.2706
vn 0.9416 0.2263 -0.2492
vn 0.9074 0.3331 -0.2563
vn 0.7372 0.6737 0.0508
vn 0.4532 0.7652 0.4572
vn 0.4805 0.3837 0.7886
vn 0.1601 0.9126 0.3763
vn -0.0176 0.8323 0.5541
vn 0.4521 0.7666 0.4561
vn -0.4538 0.0698 0.8884
vn -0.1760 0.6583 0.7319
vn -0.1334 0.3153 0.9396
vn -0.4707 0.3029 0.8287
vn -0.1470 0.3516 0.9245
vn -0.1141 0.4389 0.8913
vn 0.0743 0.9093 0.4094
vn -0.4612 0.8545 0.2391
vn -0.9532 0.1629 0.2547
vn -0.9302 0.3485 0.1152
vn -0.4574 0.8603 0.2251
vn -0.6670 0.7157 -0.2071
vn -0.8343 0.5296 -0.1532
vn -0.1300 0.9903 0.0490
vn -0.0872 0.9916 0.0960
vn -0.0183 0.9992 -0.0363
vn -0.1196 0.9451 -0.3042
vn -0.5797 0.3594 -0.7313
vn -0.5294 0.3918 -0.7525
vn -0.4635 0.8512 -0.2464
vn -0.3254 0.8461 -0.4222
vn -0.2978 0.3733 -0.8786
vn -0.0518 0.9965 0.0650
vn -0.0126 0.9819 0.1889
vn -0.3900 0.9144 0.1085
vn 0.3180 0.7780 -0.5419
vn 0.9511 0.1955 -0.2393
vn 0.8634 0.5024 -0.0459
vn 0.5779 0.5983 -0.5551
vn -0.0157 0.1748 -0.9845
vn -0.0313 0.1714 -0.9847
vn -0.5161 0.8391 0.1719
vn -0.8608 0.4781 0.1746
vn -0.8195 0.5723 0.0318
vn -0.2768 0.7075 0.6502
vn -0.1974 0.8710 0.4498
vn 0.1873 0.0678 0.9800
vn 0.5320 0.2087 0.8206
vn 0.9035 0.2823 -0.3225
vn -0.1559 -0.0623 -0.9858
vn 0.0248 0.2687 -0.9629
vn 0.1222 0.2558 -0.9590
vn -0.9983 0.0586 0.0000
vn -0.9867 -0.0128 0.1623
vn -0.9669 -0.2161 -0.1356
vn -0.3442 -0.2579 0.9028
vn -0.2974 -0.2712 0.9154
vn -0.1033 -0.1859 0.9771
vn 0.9050 -0.1471 0.3993
vn 0.9033 -0.4145 0.1105
vn 0.8578 0.0820 -0.5074
vn 0.7568 -0.6408 0.1291
vn 0.2458 -0.4389 -0.8643
vn -0.5163 -0.4748 -0.7127
vn -0.9624 -0.1624 -0.2178
vn -0.9414 -0.2153 -0.2597
vn -0.7634 -0.5883 -0.2667
vn 0.0547 -0.3166 0.9470
vn -0.0813 0.0644 0.9946
vn 0.4106 -0.1229 0.9035
vn 0.9961 0.0651 0.0595
vn 0.9798 -0.0782 0.1839
vn 0.9830 -0.0865 0.1623
vn -0.2680 -0.9435 -0.1947
vn -0.2520 -0.8870 0.3870
vn 0.9102 -0.3408 0.2352
vn 0.8965 -0.3519 0.2692
vn 0.3973 -0.8887 0.2287
vn 0.2013 -0.7586 0.6196
vn -0.4562 -0.8612 0.2241
vn -0.4969 -0.6168 0.6104
vn -0.9109 -0.1392 0.3883
vn -0.5806 -0.7828 -0.2241
vn -0.0696 0.0732 -0.9949
vn 0.5490 0.3151 -0.7741
vn 0.2816 0.1169 -0.9524
vn 0.5030 0.8488 -0.1630
vn -0.1959 -0.0251 0.9803
vn 0.0600 -0.4235 0.9039
vn 0.1369 -0.5991 0.7889
vn 0.1705 0.1306 0.9767
vn 0.7431 0.5381 0.3979
vn 0.1536 0.2599 -0.9533
vn -0.2210 0.5993 -0.7694
vn 0.1965 0.8501 -0.4886
vn -0.0447 0.3337 0.9416
vn 0.9868 0.0134 0.1614
vn 0.0633 -0.0257 0.9977
vn 0.0041 0.4696 0.8829
vn 0.9135 -0.0224 0.4063
vn 0.9189 -0.0426 0.3923
vn 0.7589 0.0931 0.6445
vn 0.1698 0.1199 0.9782
vn 0.5931 -0.0221 0.8049
vn 0.0670 -0.0711 0.9952
vn 0.9829 0.1518 -0.1041
vn 0.7460 0.1268 0.6537
vn 0.4433 0.3406 -0.8291
vn 0.5954 -0.7937 0.1249
vn 0.1119 -0.9792 -0.1690
vn 0.5709 -0.8130 -0.1147
vn 0.1024 -0.9435 -0.3151
vn -0.3570 -0.8974 -0.2594
vn -0.8135 -0.5815 0.0000
vn -0.9790 -0.1607 0.1259
vn -0.9901 0.0728 -0.1198
vn 0.0007 0.2287 0.9735
vn -0.2967 -0.2799 0.9130
vn 0.5304 0.8091 -0.2532
vn 0.6295 0.7448 -0.2215
vn 0.4298 0.7381 -0.5200
vn 0.2597 0.9195 -0.2950
vn -0.4051 -0.6671 -0.6252
vn -0.2898 -0.6675 -0.6859
vn -0.2478 -0.5674 -0.7852
vn -0.4022 -0.6274 -0.6668
vn -0.4944 0.0676 0.8666
vn -0.0919 -0.0092 0.9957
vn 0.1584 -0.1229 0.9797
vn 0.1751 -0.1447 0.9738
vn 0.9951 0.0019 -0.0992
vn 0.9757 -0.1967 0.0968
vn 0.9817 0.1338 -0.1355
vn 0.9547 0.2641 -0.1371
vn 0.8048 -0.5240 -0.2789
vn 0.2857 0.3807 -0.8794
vn 0.6354 0.0485 -0.7707
vn 0.2058 0.0697 -0.9761
vn 0.0466 -0.7631 -0.6446
vn 0.2076 -0.7881 -0.5796
vn 0.1441 -0.6397 -0.7550
vn 0.2601 -0.7408 -0.6194
usemtl Material
s off
f 1/1/1 64/2/1 37/3/1
f 2/4/2 38/5/2 40/6/2
f 2/4/3 40/6/3 44/7/3
f 3/8/4 42/9/4 48/10/4
f 5/11/5 43/12/5 52/13/5
f 2/4/6 44/7/6 72/14/6
f 63/15/7 39/16/7 46/17/7
f 3/8/8 48/10/8 75/18/8
f 4/19/9 50/20/9 77/21/9
f 47/22/10 98/23/10 6/24/10
f 54/25/11 60/26/11 80/27/11
f 7/28/12 55/29/12 61/30/12
f 8/31/13 56/32/13 62/33/13
f 9/34/14 57/35/14 83/36/14
f 36/37/15 88/38/15 86/39/15
f 36/37/16 89/40/16 88/38/16
f 30/41/17 81/42/17 90/43/17
f 35/44/18 91/45/18 85/46/18
f 35/44/19 92/47/19 91/45/19
f 29/48/20 80/27/20 93/49/20
f 34/50/21 94/51/21 84/52/21
f 34/50/22 95/53/22 94/51/22
f 28/54/23 79/55/23 96/56/23
f 32/57/24 98/23/24 97/58/24
f 123/59/25 5/11/25 101/60/25
f 123/59/26 101/60/26 122/61/26
f 26/62/27 76/63/27 102/64/27
f 27/65/28 103/66/28 53/67/28
f 27/65/29 104/68/29 103/66/29
f 146/69/30 49/70/30 106/71/30
f 23/72/31 107/73/31 106/71/31
f 19/74/32 70/75/32 112/76/32
f 24/77/33 114/78/33 113/79/33
f 18/80/34 69/81/34 115/82/34
f 22/83/35 116/84/35 73/85/35
f 22/83/36 117/86/36 116/84/36
f 16/87/37 67/88/37 118/89/37
f 120/90/38 141/91/38 20/92/38
f 12/93/39 65/94/39 121/95/39
f 78/96/40 44/7/40 123/59/40
f 17/97/41 68/98/41 125/99/41
f 17/100/42 126/101/42 68/102/42
f 127/103/43 126/101/43 15/104/43
f 15/105/44 129/106/44 128/107/44
f 10/108/45 63/109/45 130/110/45
f 13/111/46 131/112/46 66/113/46
f 13/111/47 132/114/47 131/112/47
f 11/115/48 64/116/48 133/117/48
f 10/118/49 134/119/49 63/15/49
f 10/118/50 135/120/50 134/119/50
f 11/121/51 38/122/51 136/123/51
f 136/123/52 65/94/52 12/93/52
f 136/123/53 38/122/53 65/94/53
f 38/122/54 2/4/54 65/94/54
f 134/119/55 136/123/55 12/93/55
f 134/119/56 135/120/56 136/123/56
f 135/120/57 11/121/57 136/123/57
f 63/15/58 134/119/58 39/16/58
f 134/119/59 12/93/59 39/16/59
f 131/112/60 133/117/60 14/124/60
f 131/112/61 132/114/61 133/117/61
f 132/114/62 11/115/62 133/117/62
f 66/113/63 41/125/63 5/11/63
f 66/113/64 131/112/64 41/125/64
f 131/112/65 14/124/65 41/125/65
f 130/110/66 67/88/66 16/87/66
f 130/110/67 63/109/67 67/88/67
f 46/17/68 67/88/68 63/109/68
f 128/107/69 130/110/69 16/87/69
f 128/107/70 129/106/70 130/110/70
f 129/106/71 10/108/71 130/110/71
f 128/107/72 16/87/72 42/9/72
f 127/103/73 69/81/73 18/80/73
f 126/101/74 127/103/74 18/80/74
f 37/126/75 129/106/75 1/1/75
f 125/99/76 70/75/76 19/74/76
f 125/99/77 68/98/77 70/75/77
f 68/98/78 4/19/78 70/75/78
f 124/127/79 17/97/79 125/99/79
f 41/128/80 43/12/80 5/11/80
f 110/129/81 44/7/81 78/96/81
f 78/96/82 122/61/82 9/34/82
f 121/95/83 72/14/83 21/130/83
f 121/95/84 65/94/84 72/14/84
f 65/94/85 2/4/85 72/14/85
f 121/95/86 140/131/86 119/132/86
f 119/132/87 120/90/87 121/95/87
f 120/90/88 12/93/88 121/95/88
f 142/133/89 6/24/89 71/134/89
f 118/89/90 74/135/90 23/136/90
f 118/89/91 67/88/91 74/135/91
f 67/88/92 46/17/92 74/135/92
f 116/84/93 118/89/93 23/136/93
f 116/84/94 117/86/94 118/89/94
f 117/86/95 16/87/95 118/89/95
f 73/85/96 116/84/96 49/137/96
f 116/84/97 23/136/97 49/137/97
f 115/82/98 75/18/98 25/138/98
f 115/82/99 69/81/99 75/18/99
f 69/81/100 3/8/100 75/18/100
f 113/79/101 115/82/101 25/138/101
f 113/79/102 114/78/102 115/82/102
f 114/78/103 18/80/103 115/82/103
f 30/41/104 103/66/104 104/68/104
f 113/79/105 25/138/105 51/139/105
f 112/76/106 77/21/106 27/65/106
f 112/76/107 70/75/107 77/21/107
f 70/75/108 4/19/108 77/21/108
f 111/140/109 19/74/109 112/76/109
f 76/63/110 53/67/110 8/31/110
f 111/140/111 112/76/111 26/62/111
f 78/96/112 143/141/112 144/142/112
f 122/61/113 78/96/113 123/59/113
f 109/143/114 144/142/114 143/141/114
f 6/24/115 98/23/115 58/144/115
f 98/23/116 47/22/116 145/145/116
f 108/146/117 79/55/117 28/54/117
f 108/146/118 71/134/118 79/55/118
f 71/134/119 6/24/119 79/55/119
f 106/71/120 107/73/120 108/146/120
f 107/73/121 20/92/121 108/146/121
f 146/69/122 54/25/122 49/70/122
f 73/85/123 29/48/123 105/147/123
f 29/48/124 73/85/124 80/27/124
f 54/25/125 73/85/125 49/70/125
f 51/139/126 55/29/126 7/28/126
f 22/83/127 73/85/127 105/147/127
f 81/42/128 113/79/128 7/28/128
f 81/42/129 30/41/129 104/68/129
f 87/148/130 138/149/130 36/150/130
f 113/79/131 81/42/131 24/77/131
f 7/28/132 113/79/132 51/139/132
f 24/77/133 81/42/133 104/68/133
f 53/67/134 56/32/134 8/31/134
f 53/67/135 103/66/135 56/32/135
f 103/66/136 30/41/136 56/32/136
f 102/64/137 76/63/137 82/151/137
f 76/63/138 8/31/138 82/151/138
f 100/152/139 102/64/139 31/153/139
f 100/152/140 101/60/140 102/64/140
f 101/60/141 26/62/141 102/64/141
f 45/154/142 57/35/142 9/34/142
f 45/154/143 100/152/143 57/35/143
f 100/152/144 31/153/144 57/35/144
f 99/155/145 83/156/145 33/157/145
f 99/155/146 78/96/146 83/156/146
f 78/96/147 9/34/147 83/156/147
f 97/58/148 99/155/148 33/157/148
f 97/58/149 98/23/149 99/155/149
f 97/58/150 84/158/150 32/57/150
f 97/58/151 59/159/151 84/158/151
f 97/58/152 33/157/152 59/160/152
f 96/56/153 58/161/153 32/162/153
f 96/56/154 79/55/154 58/161/154
f 79/55/155 6/24/155 58/161/155
f 94/51/156 96/56/156 32/162/156
f 94/51/157 95/53/157 96/56/157
f 95/53/158 28/54/158 96/56/158
f 94/51/159 32/57/159 84/52/159
f 93/49/160 60/163/160 34/164/160
f 93/49/161 80/27/161 60/163/161
f 54/25/162 80/27/162 73/85/162
f 91/45/163 93/49/163 34/164/163
f 91/45/164 92/47/164 93/49/164
f 92/47/165 29/48/165 93/49/165
f 84/158/166 59/159/166 86/165/166
f 85/46/167 91/45/167 84/158/167
f 91/45/168 34/164/168 84/158/168
f 90/43/169 61/166/169 35/167/169
f 90/43/170 81/42/170 61/166/170
f 81/42/171 7/28/171 61/166/171
f 88/38/172 90/43/172 35/167/172
f 88/38/173 89/40/173 90/43/173
f 89/40/174 30/41/174 90/43/174
f 84/158/175 86/39/175 85/46/175
f 86/39/176 88/38/176 85/168/176
f 88/38/177 35/167/177 85/168/177
f 139/169/178 138/149/178 87/148/178
f 83/36/179 87/148/179 33/170/179
f 83/36/180 57/35/180 87/148/180
f 57/35/180 31/153/180 87/148/180
f 62/33/181 89/40/181 36/37/181
f 62/33/182 56/32/182 89/40/182
f 56/32/183 30/41/183 89/40/183
f 61/30/184 92/47/184 35/44/184
f 61/30/185 55/29/185 92/47/185
f 55/29/186 29/48/186 92/47/186
f 60/26/187 95/53/187 34/50/187
f 60/26/188 54/25/188 95/53/188
f 58/144/189 98/23/189 32/57/189
f 99/155/190 98/23/190 109/143/190
f 52/13/191 26/62/191 101/60/191
f 77/21/192 104/68/192 27/65/192
f 77/21/193 50/20/193 104/68/193
f 50/20/194 24/77/194 104/68/194
f 75/18/195 105/147/195 25/138/195
f 75/18/196 48/10/196 105/147/196
f 48/10/197 22/83/197 105/147/197
f 74/171/198 107/73/198 23/72/198
f 74/171/199 46/17/199 107/73/199
f 46/17/200 20/92/200 107/73/200
f 110/129/201 21/130/201 72/14/201
f 72/14/202 44/7/202 110/129/202
f 52/13/203 111/140/203 26/62/203
f 52/13/204 43/12/204 111/140/204
f 43/12/205 19/74/205 111/140/205
f 50/20/206 114/78/206 24/77/206
f 48/10/207 117/86/207 22/83/207
f 48/10/208 42/9/208 117/86/208
f 42/9/209 16/87/209 117/86/209
f 46/17/210 120/90/210 20/92/210
f 46/17/211 39/16/211 120/90/211
f 39/16/212 12/93/212 120/90/212
f 144/142/213 110/129/213 78/96/213
f 44/7/214 40/6/214 123/59/214
f 40/6/215 13/111/215 123/59/215
f 129/106/75 15/105/75 1/1/75
f 17/97/216 1/1/216 15/105/216
f 37/126/217 10/108/217 129/106/217
f 40/6/218 132/114/218 13/111/218
f 40/6/219 38/5/219 132/114/219
f 38/5/220 11/115/220 132/114/220
f 37/3/221 135/120/221 10/118/221
f 37/3/221 64/2/221 135/120/221
f 64/2/221 11/121/221 135/120/221
f 15/104/222 69/81/222 127/103/222
f 69/81/223 15/104/223 3/8/223
f 3/8/224 128/107/224 42/9/224
f 15/104/225 128/107/225 3/8/225
f 139/169/226 82/151/226 138/149/226
f 62/172/227 138/149/227 8/31/227
f 82/151/228 139/169/228 31/153/228
f 33/170/229 87/148/229 137/173/229
f 141/91/230 71/134/230 20/92/230
f 120/90/231 119/132/231 141/91/231
f 121/95/232 21/130/232 140/131/232
f 142/133/233 47/22/233 6/24/233
f 109/143/234 98/23/234 145/145/234
f 102/64/235 82/151/235 31/153/235
f 138/149/236 62/172/236 36/150/236
f 87/148/237 31/153/237 139/169/237
f 54/25/238 146/69/238 28/54/238
f 9/34/239 122/61/239 45/154/239
f 49/70/240 23/72/240 106/71/240
f 28/54/241 95/53/241 54/25/241
f 110/129/242 144/142/242 21/130/242
f 144/142/243 109/143/243 21/130/243
f 109/143/244 145/145/244 21/130/244
f 21/130/245 145/145/245 140/131/245
f 145/145/246 47/22/246 140/131/246
f 140/131/247 47/22/247 119/132/247
f 78/96/248 99/155/248 143/141/248
f 143/141/249 99/155/249 109/143/249
f 82/151/250 8/31/250 138/149/250
f 133/117/251 64/116/251 14/124/251
f 124/127/252 14/124/252 64/116/252
f 64/116/253 1/1/253 124/127/253
f 124/127/254 1/1/254 17/97/254
f 17/100/255 15/105/255 126/101/255
f 51/139/256 25/138/256 105/147/256
f 105/147/257 29/48/257 51/139/257
f 55/29/258 51/139/258 29/48/258
f 108/146/259 28/54/259 146/69/259
f 106/71/260 108/146/260 146/69/260
f 86/165/261 59/159/261 137/173/261
f 33/170/262 137/173/262 59/159/262
f 86/165/263 137/173/263 36/37/263
f 87/148/264 36/37/264 137/173/264
f 4/19/265 114/78/265 50/20/265
f 68/102/266 126/101/266 4/19/266
f 18/80/267 114/78/267 126/101/267
f 114/78/268 4/19/268 126/101/268
f 20/92/269 71/134/269 108/146/269
f 142/133/270 71/134/270 141/91/270
f 119/132/271 47/22/271 141/91/271
f 47/22/272 142/133/272 141/91/272
f 13/111/273 66/113/273 123/59/273
f 66/113/274 5/11/274 123/59/274
f 52/13/275 101/60/275 5/11/275
f 100/152/276 122/61/276 101/60/276
f 122/61/277 100/152/277 45/154/277
f 26/62/278 53/67/278 76/63/278
f 53/67/279 112/76/279 27/65/279
f 112/76/280 53/67/280 26/62/280
f 41/128/281 14/124/281 43/12/281
f 124/127/282 125/99/282 14/124/282
f 43/12/283 125/99/283 19/74/283
f 43/12/284 14/124/284 125/99/284
