# Blender v2.92.0 OBJ File: 'Rock.blend'
# www.blender.org
mtllib Rock_02.mtl
o 立方体.002
v -1.000000 1.000000 -1.000000
v -1.000000 0.478453 -1.654091
v -2.341858 0.239226 -0.827046
v 0.617127 1.000000 -1.742971
v 1.466912 0.000000 -1.742971
v 0.229068 0.000000 -2.230518
v 2.490011 0.436214 0.000000
v 2.506653 1.273141 0.500000
v 2.443592 0.218107 0.608568
v 0.000000 1.000000 1.000000
v -1.497490 -0.309230 1.761365
v 0.000000 -0.000000 1.783519
v 2.218155 -1.000000 -0.174257
v 1.357188 -1.122400 2.092427
v 0.000000 -1.000000 1.739201
v -1.498851 1.000000 0.000000
v -0.749426 1.234624 0.500000
v -0.749426 1.319768 0.000000
v 2.231420 2.148494 0.500000
v 1.070067 1.975160 0.000000
v -0.253126 1.763399 0.000000
v 1.637211 1.379405 -1.000000
v 0.692043 1.950360 -0.500000
v 2.015236 1.783163 -0.500000
v 0.233456 1.653748 -0.871486
v 0.000000 -1.531596 -0.000000
v -2.391998 -1.000000 1.329735
v -2.514943 -1.397860 -0.000000
v -2.709885 -1.000000 -0.827046
v -1.254471 -1.000000 -1.823840
v 1.413566 -1.000000 -1.875320
v 0.000000 -1.000000 -1.993588
v 0.000000 -0.500000 1.761360
v 1.206474 -0.122400 1.986650
v 1.281831 -0.622400 2.092357
v 0.603237 0.438800 1.611577
v 2.124356 -0.500000 1.108568
v 2.252061 -0.148480 -0.958614
v 1.440239 -0.500000 -1.809145
v -0.209568 -0.500000 -2.309237
v -0.500000 0.000000 -2.139489
v -0.877235 -0.500000 -2.278291
v -2.383748 -0.589627 -1.654091
v -2.678287 -0.500000 -0.000000
v -2.929311 -0.750000 0.500000
v -2.466801 -0.037002 -0.000000
v -1.686588 0.104581 0.692011
v -1.876402 -0.154615 0.880683
v 2.275070 -1.000000 1.000000
v 2.093477 -0.000000 1.306458
v -1.974561 -0.084054 -1.654091
v -2.255315 0.000000 0.000000
v 1.127169 1.189703 -1.607445
v 2.653401 1.311568 0.000000
v -0.500000 0.850358 1.000000
v -1.011968 0.270702 1.291368
v -1.374138 0.925179 0.250000
v 0.823024 1.555034 1.000000
v 1.646049 2.110067 1.000000
v 0.940882 1.430884 -1.525689
v 1.052061 1.746052 -1.276247
v -1.195999 -1.000000 1.859589
v -2.508942 -1.000000 -1.736609
v 1.905276 -1.000000 -1.357114
v -0.748745 -0.654615 1.750283
v 1.590057 0.179014 1.720145
v 1.833829 1.582550 1.054284
v 1.410325 1.041275 1.081426
v -1.798213 0.147189 -1.654091
v -1.944744 -0.654615 1.509780
v -2.553496 -0.319482 0.500000
v -1.502375 0.597941 0.670527
v -1.249426 0.850358 0.500000
v 2.393260 2.186921 0.000000
v 1.997626 0.527517 1.162852
v 2.021610 1.055034 1.108568
v 0.986821 0.833469 1.334176
v 0.000000 1.319768 0.500000
v -1.023937 0.541404 1.000000
vt 0.625000 0.250000
vt 0.500000 0.250000
vt 0.500000 0.187500
vt 0.625000 0.375000
vt 0.500000 0.500000
vt 0.500000 0.375000
vt 0.500000 0.625000
vt 0.562500 0.687500
vt 0.500000 0.687500
vt 0.625000 0.875000
vt 0.500000 1.000000
vt 0.500000 0.875000
vt 0.375000 0.625000
vt 0.312500 0.750000
vt 0.250000 0.750000
vt 0.875000 0.625000
vt 0.812500 0.687500
vt 0.812500 0.625000
vt 0.625000 0.687500
vt 0.687500 0.625000
vt 0.750000 0.625000
vt 0.625000 0.500000
vt 0.687500 0.562500
vt 0.625000 0.562500
vt 0.875000 0.500000
vt 0.750000 0.562500
vt 0.750000 0.500000
vt 0.250000 0.625000
vt 0.125000 0.750000
vt 0.125000 0.625000
vt 0.125000 0.562500
vt 0.187500 0.500000
vt 0.375000 0.500000
vt 0.250000 0.500000
vt 0.437500 0.875000
vt 0.500000 0.812500
vt 0.437500 0.812500
vt 0.562500 0.843750
vt 0.437500 0.750000
vt 0.437500 0.562500
vt 0.437500 0.500000
vt 0.437500 0.375000
vt 0.500000 0.312500
vt 0.437500 0.312500
vt 0.406250 0.250000
vt 0.375000 0.187500
vt 0.437500 0.125000
vt 0.406250 0.062500
vt 0.468750 0.125000
vt 0.562500 0.062500
vt 0.500000 0.062500
vt 0.500000 0.000000
vt 0.375000 0.875000
vt 0.375000 0.812500
vt 0.375000 0.750000
vt 0.500000 0.750000
vt 0.375000 0.375000
vt 0.375000 0.312500
vt 0.437500 0.250000
vt 0.500000 0.125000
vt 0.625000 0.125000
vt 0.625000 0.437500
vt 0.562500 0.625000
vt 0.625000 0.937500
vt 0.562500 1.000000
vt 0.875000 0.656250
vt 0.687500 0.750000
vt 0.625000 0.750000
vt 0.187500 0.750000
vt 0.125000 0.500000
vt 0.375000 0.562500
vt 0.375000 0.937500
vt 0.437500 0.937500
vt 0.500000 0.781250
vt 0.593750 0.750000
vt 0.625000 0.812500
vt 0.578125 0.781250
vt 0.375000 0.125000
vt 0.468750 0.250000
vt 0.375000 0.250000
vt 0.375000 0.000000
vt 0.437500 0.000000
vt 0.437500 0.062500
vt 0.593750 0.046875
vt 0.625000 0.062500
vt 0.625000 0.093750
vt 0.718750 0.500000
vt 0.687500 0.500000
vt 0.625000 0.625000
vt 0.531250 0.750000
vt 0.562500 0.750000
vt 0.562500 0.812500
vt 0.625000 0.406250
vt 0.750000 0.687500
vt 0.812500 0.750000
vt 0.750000 0.750000
vt 0.875000 0.687500
vt 0.562500 0.000000
vt 0.625000 0.000000
vt 0.625000 1.000000
vt 0.437500 1.000000
vt 0.375000 1.000000
vn -0.4639 0.6927 -0.5523
vn 0.3499 0.2973 -0.8884
vn 0.9969 -0.0537 0.0568
vn -0.1377 0.6109 0.7797
vn -0.0689 -0.9944 -0.0799
vn -0.3877 0.9087 0.1547
vn -0.1580 0.9871 0.0247
vn 0.0934 0.7389 -0.6673
vn -0.3002 0.6949 -0.6534
vn -0.0508 -0.9555 0.2906
vn -0.2535 -0.8937 -0.3702
vn 0.0216 -0.9660 -0.2576
vn -0.0056 -0.0443 0.9990
vn -0.2314 0.1677 0.9583
vn -0.2188 0.6018 0.7681
vn 0.8824 -0.4603 -0.0976
vn 0.7109 0.0549 -0.7012
vn 0.8268 0.1842 -0.5314
vn 0.3610 -0.1724 -0.9165
vn -0.0442 0.2980 -0.9535
vn -0.1094 0.4696 -0.8761
vn -0.9328 0.2770 -0.2304
vn -0.8827 0.4032 -0.2416
vn -0.5926 0.7104 0.3797
vn -0.2539 -0.0418 0.9663
vn -0.2546 -0.0392 0.9663
vn -0.2549 -0.0383 0.9662
vn 0.7578 0.0880 0.6466
vn 0.7564 -0.1998 0.6229
vn -0.1047 -0.6245 -0.7740
vn -0.5540 -0.2910 -0.7800
vn -0.3331 0.4771 -0.8133
vn -0.7722 0.5842 0.2498
vn -0.5017 0.8280 -0.2503
vn 0.1952 0.1659 -0.9666
vn 0.9480 -0.1769 0.2646
vn -0.7178 0.6879 0.1073
vn 0.2445 -0.9273 0.2834
vn 0.1251 -0.9921 -0.0061
vn -0.5359 0.6973 0.4760
vn -0.4421 0.6555 0.6123
vn -0.6647 0.7437 -0.0712
vn -0.0958 -0.9716 0.2162
vn -0.0000 -1.0000 0.0000
vn -0.0348 -0.9657 -0.2575
vn -0.0515 -0.9677 -0.2467
vn 0.1623 -0.9747 -0.1540
vn 0.0985 0.1821 0.9783
vn -0.1702 -0.0436 0.9844
vn 0.0728 0.6071 0.7913
vn -0.0514 0.0931 0.9943
vn -0.0557 0.0834 0.9950
vn -0.0472 0.0869 0.9951
vn 0.9536 0.2975 -0.0462
vn 0.9681 -0.2014 0.1493
vn 0.6245 0.5882 -0.5138
vn 0.6912 -0.1290 -0.7111
vn 0.0827 0.1264 -0.9885
vn 0.3940 -0.3668 -0.8427
vn -0.1198 0.2561 -0.9592
vn -0.2264 0.5670 -0.7920
vn -0.2754 0.7516 -0.5993
vn -0.9736 -0.1771 0.1443
vn -0.7180 0.6074 -0.3398
vn -0.9430 0.2801 0.1797
vn -0.3613 0.8705 -0.3343
vn -0.6848 0.5222 -0.5083
vn -0.6691 0.5416 -0.5089
vn -0.9241 0.3230 -0.2042
vn -0.8498 -0.1546 -0.5039
vn -0.6358 0.5315 0.5597
vn -0.4555 0.7646 0.4560
vn -0.2536 -0.0428 0.9664
vn 0.7477 0.1128 0.6544
vn 0.6524 0.0981 0.7515
vn -0.0388 -0.5450 -0.8375
vn -0.0677 0.2165 -0.9739
vn -0.1149 0.0930 -0.9890
vn -0.3858 0.2942 -0.8744
vn -0.2104 0.5069 -0.8359
vn 0.1241 0.9820 -0.1425
vn -0.3939 0.6518 -0.6480
vn -0.3351 0.8933 -0.2995
vn -0.1576 0.9850 0.0703
vn 0.6291 0.1978 0.7517
vn 0.9130 0.2871 0.2900
vn 0.9097 0.2703 0.3152
vn 0.8182 0.2846 0.4995
vn 0.7787 0.0180 0.6271
vn 0.6854 0.3117 0.6580
vn -0.2438 0.3615 0.9000
vn 0.2460 0.2960 0.9230
vn -0.0465 0.1043 0.9935
vn -0.1400 0.6569 0.7409
vn 0.0501 0.5412 0.8394
vn 0.5652 0.7382 0.3683
vn -0.1362 0.9872 -0.0836
vn -0.4132 0.8459 -0.3371
vn -0.0985 0.4776 0.8730
vn 0.9018 -0.1098 0.4181
vn 0.0994 0.3875 -0.9165
vn -0.5530 0.4642 0.6919
vn -0.0557 0.0826 0.9950
vn 0.6933 0.2060 -0.6906
vn 0.4140 0.2476 0.8759
vn -0.1308 0.8173 -0.5611
vn 0.7863 0.0278 0.6172
vn 0.2810 0.4551 0.8450
vn -0.0461 0.0860 0.9952
vn -0.2153 0.7194 0.6603
vn -0.4499 0.5855 0.6744
vn -0.4715 0.5275 0.7067
vn -0.1113 0.9797 0.1668
vn -0.0953 0.8386 0.5363
vn -0.6871 0.5290 0.4981
vn -0.6847 0.5301 0.5002
vn -0.6943 0.5254 0.4918
vn -0.5290 0.7557 0.3860
vn -0.3625 0.6753 0.6423
vn -0.6946 0.5254 0.4914
vn -0.1945 0.6498 0.7348
vn -0.3926 0.6657 0.6346
vn -0.3851 0.9026 -0.1921
vn -0.4940 0.7325 0.4685
vn -0.3573 0.7139 0.6022
vn -0.3819 0.6992 0.6043
vn -0.4041 0.6854 0.6058
vn -0.9369 0.3492 -0.0140
vn -0.6751 0.2818 0.6818
vn 0.6927 0.2738 -0.6672
vn -0.4063 0.6361 -0.6560
vn -0.2800 0.8884 -0.3637
vn 0.7244 0.0523 -0.6874
vn 0.7157 0.0350 -0.6976
vn 0.9324 -0.2643 -0.2466
vn -0.3899 0.8637 0.3194
vn -0.4662 0.7166 0.5189
vn -0.6905 0.6009 0.4026
vn -0.1525 0.8716 0.4660
vn -0.7324 0.6393 0.2342
vn -0.6212 0.5423 0.5657
vn -0.4482 -0.0689 0.8913
vn 0.0294 -0.9559 0.2922
vn 0.2281 -0.9718 -0.0603
vn 0.9759 -0.1677 -0.1399
vn 0.0000 0.0000 -1.0000
vn -0.7088 -0.6552 0.2616
vn -0.4046 0.0479 0.9132
vn 0.5244 0.8513 0.0191
vn 0.6108 0.7087 -0.3532
vn 0.5782 0.7314 -0.3616
vn 0.3196 0.5162 -0.7946
vn 0.5086 0.4901 -0.7079
vn -0.3260 0.7314 0.5990
usemtl マテリアル.001
s 1
f 1/1/1 2/2/1 3/3/1
f 4/4/2 5/5/2 6/6/2
f 7/7/3 8/8/3 9/9/3
f 10/10/4 11/11/4 12/12/4
f 13/13/5 14/14/5 15/15/5
f 16/16/6 17/17/6 18/18/6
f 19/19/7 20/20/7 21/21/7
f 22/22/8 23/23/8 24/24/8
f 1/25/9 25/26/9 4/27/9
f 26/28/10 27/29/10 28/30/10
f 28/30/11 29/31/11 30/32/11
f 31/33/12 26/28/12 32/34/12
f 33/35/13 12/12/13 11/11/13
f 34/36/14 33/35/14 35/37/14
f 12/12/15 36/38/15 10/10/15
f 9/9/16 37/39/16 7/7/16
f 5/5/17 38/40/17 39/41/17
f 22/22/18 7/7/18 5/5/18
f 40/42/19 6/6/19 5/5/19
f 41/43/20 40/42/20 42/44/20
f 4/4/21 6/6/21 41/43/21
f 3/3/22 43/45/22 29/46/22
f 44/47/23 45/48/23 46/49/23
f 47/50/24 48/51/24 11/52/24
f 35/37/25 15/53/26 14/54/27
f 37/39/28 14/54/28 49/55/28
f 50/56/29 35/37/29 37/39/29
f 42/44/30 32/57/30 30/58/30
f 51/59/31 42/44/31 30/58/31
f 2/2/32 41/43/32 42/44/32
f 3/3/33 52/60/33 16/61/33
f 16/61/34 1/1/34 3/3/34
f 53/62/35 5/5/35 4/4/35
f 7/7/36 54/63/36 8/8/36
f 55/64/37 56/65/37 11/11/37
f 15/15/38 26/28/38 13/13/38
f 13/13/39 49/55/39 14/14/39
f 57/66/40 17/17/40 16/16/40
f 21/21/41 58/67/41 59/68/41
f 1/25/42 18/18/42 21/21/42
f 26/28/43 62/69/43 27/29/43
f 29/31/44 63/70/44 30/32/44
f 30/32/45 32/34/45 26/28/45
f 26/28/46 28/30/46 30/32/46
f 64/71/47 26/28/47 31/33/47
f 62/72/48 15/53/48 65/73/48
f 33/35/13 65/73/13 15/53/13
f 34/36/49 12/12/49 33/35/49
f 34/36/50 66/74/50 36/38/50
f 67/75/51 58/76/52 68/77/53
f 49/55/54 13/13/54 37/39/54
f 13/13/55 7/7/55 37/39/55
f 7/7/56 38/40/56 5/5/56
f 22/22/57 54/63/57 7/7/57
f 32/57/58 39/41/58 31/33/58
f 32/57/59 40/42/59 5/5/59
f 41/43/60 6/6/60 40/42/60
f 41/43/61 2/2/61 4/4/61
f 2/2/62 1/1/62 4/4/62
f 29/46/63 28/78/63 44/47/63
f 44/47/64 52/60/64 29/46/64
f 52/60/65 3/3/65 29/46/65
f 3/3/66 2/2/66 69/79/66
f 69/79/67 51/59/67 3/3/67
f 51/59/68 43/45/68 3/3/68
f 43/45/69 63/80/69 29/46/69
f 28/78/70 45/48/70 44/47/70
f 27/81/71 70/82/71 71/83/71
f 72/84/72 73/85/72 57/86/72
f 35/37/25 33/35/73 15/53/26
f 37/39/74 35/37/74 14/54/74
f 66/74/75 35/37/75 50/56/75
f 42/44/76 40/42/76 32/57/76
f 30/58/77 63/80/77 43/45/77
f 43/45/78 51/59/78 30/58/78
f 42/44/79 51/59/79 69/79/79
f 69/79/80 2/2/80 42/44/80
f 24/24/81 23/23/81 20/20/81
f 60/87/82 25/26/82 61/88/82
f 25/26/83 21/21/83 23/23/83
f 23/23/84 21/21/84 20/20/84
f 8/8/85 19/19/85 59/68/85
f 8/8/86 54/63/86 19/19/86
f 54/63/87 74/89/87 19/19/87
f 9/9/88 75/90/88 50/56/88
f 9/9/89 8/8/89 76/91/89
f 8/8/90 67/75/90 76/91/90
f 77/92/91 58/76/91 10/10/91
f 75/90/92 77/92/92 50/56/92
f 76/91/93 68/77/93 75/90/93
f 36/38/94 77/92/94 10/10/94
f 36/38/95 66/74/95 77/92/95
f 66/74/96 50/56/96 77/92/96
f 21/21/97 59/68/97 19/19/97
f 1/25/98 21/21/98 25/26/98
f 12/12/99 34/36/99 36/38/99
f 9/9/100 50/56/100 37/39/100
f 4/4/101 60/93/101 53/62/101
f 78/94/102 58/67/102 21/21/102
f 67/75/51 59/68/103 58/76/52
f 24/24/104 54/63/104 22/22/104
f 66/74/105 34/36/105 35/37/105
f 24/24/106 20/20/106 74/89/106
f 9/9/107 76/91/107 75/90/107
f 8/8/90 59/68/90 67/75/90
f 77/92/108 68/77/108 58/76/108
f 75/90/108 68/77/108 77/92/108
f 76/91/109 67/75/51 68/77/53
f 17/17/110 55/95/110 10/96/110
f 17/17/111 73/97/111 55/95/111
f 18/18/112 78/94/112 21/21/112
f 18/18/113 17/17/113 78/94/113
f 17/17/114 10/96/114 78/94/114
f 47/50/115 57/86/116 16/61/117
f 56/98/118 47/50/118 11/52/118
f 79/99/119 72/84/119 56/98/119
f 47/50/115 16/61/117 52/60/120
f 11/11/121 10/10/121 55/64/121
f 55/64/122 79/100/122 56/65/122
f 57/66/40 73/97/40 17/17/40
f 1/25/123 16/16/123 18/18/123
f 78/94/124 10/96/124 58/67/124
f 73/97/125 79/100/126 55/64/127
f 47/50/128 72/84/128 57/86/128
f 56/98/129 72/84/129 47/50/129
f 19/19/7 74/89/7 20/20/7
f 53/62/130 22/22/130 5/5/130
f 60/87/131 4/27/131 25/26/131
f 61/88/132 25/26/132 23/23/132
f 24/24/104 74/89/104 54/63/104
f 39/41/133 64/71/133 31/33/133
f 39/41/134 38/40/134 64/71/134
f 38/40/135 13/13/135 64/71/135
f 71/83/136 48/51/136 52/60/136
f 71/83/137 70/82/137 48/51/137
f 70/82/138 11/52/138 48/51/138
f 46/49/139 71/83/139 52/60/139
f 46/49/140 45/48/140 71/83/140
f 45/48/141 27/81/141 71/83/141
f 62/72/142 11/11/142 70/101/142
f 47/50/24 52/60/24 48/51/24
f 26/28/143 15/15/143 62/69/143
f 64/71/144 13/13/144 26/28/144
f 33/35/13 11/11/13 65/73/13
f 7/7/145 13/13/145 38/40/145
f 32/57/58 5/5/58 39/41/58
f 44/47/146 46/49/146 52/60/146
f 28/78/147 27/81/147 45/48/147
f 70/101/148 27/102/148 62/72/148
f 62/72/48 65/73/48 11/11/48
f 23/23/149 22/22/150 61/88/151
f 60/87/152 61/88/151 53/62/153
f 53/62/153 61/88/151 22/22/150
f 73/97/125 72/84/154 79/100/126
l 51 44
