# Blender v2.92.0 OBJ File: 'Rock.blend'
# www.blender.org
mtllib Rock_03.mtl
o 立方体.001
v -2.391998 -1.000000 1.329735
v -1.149306 0.629359 1.052888
v -2.508942 -1.000000 -1.736609
v -1.000000 1.000000 -1.000000
v 2.275070 -1.000000 1.000000
v 1.646049 2.110067 1.000000
v 1.413566 -1.000000 -1.875320
v 1.637211 1.379405 -1.000000
v -2.514943 -1.397860 0.000000
v -1.497490 -0.401537 1.761365
v -1.638825 1.013474 -0.168025
v -1.000000 0.478453 -1.654091
v 0.000000 -1.000000 -1.993588
v 0.617127 1.000000 -1.742971
v 1.466912 0.000000 -1.742971
v 2.218155 -1.000000 -0.174257
v 2.393260 2.186921 0.000000
v 2.093477 0.000000 1.306458
v 0.000000 -1.000000 1.739201
v 0.000000 1.000000 1.000000
v -0.253126 1.763399 0.000000
v 0.000000 -1.531596 0.000000
v 0.000000 0.000000 1.783519
v 2.490011 0.436214 0.000000
v 0.229068 0.000000 -2.230518
v -2.255315 0.000000 0.000000
v 2.124356 -0.500000 1.108568
v 1.357188 -1.122400 2.092427
v 1.206474 -0.122400 1.986650
v 0.000000 -0.500000 1.857529
v 1.281831 -0.622400 2.092357
v -1.974561 -0.084054 -1.654091
v -1.254471 -1.000000 -1.823840
v -0.500000 0.000000 -2.139489
v -0.209568 -0.500000 -2.309237
v -0.877235 -0.500000 -2.278291
v -2.383748 -0.589627 -1.654091
v -2.709885 -1.000000 -0.827046
v -2.341858 0.239226 -0.827046
v -2.678287 -0.500000 0.000000
v -1.798213 0.147189 -1.654091
v 1.052061 1.746052 -1.276247
v 0.233456 1.757775 -0.871486
v 2.015236 1.783163 -0.500000
v 2.452885 2.148494 0.500000
v 2.021610 1.055034 1.108568
v 2.443592 0.218107 0.608568
v 2.653401 1.311568 0.000000
v 2.506653 1.273141 0.500000
v 2.045863 0.527517 1.327910
v 0.823024 1.555034 1.000000
v 1.590057 0.179014 1.720145
v 0.603237 0.438800 1.611577
v 0.986821 0.833469 1.522870
v 1.833829 1.582550 1.054284
v 1.410325 1.041275 1.278090
v -0.500000 0.758051 1.000000
v -1.229569 1.003978 0.619177
v 0.000000 1.319768 0.500000
v -0.749426 1.319768 0.000000
v -0.749426 1.234624 0.500000
v -1.347770 0.270702 1.291368
v -1.432937 0.946059 0.335272
v -1.686588 0.245224 0.881694
v -1.327017 0.774328 0.891075
v 2.740956 -0.281893 -0.087129
v 1.070067 2.138407 0.000000
v 0.692043 1.950360 -0.500000
v 1.344636 1.528865 -1.185743
v 0.940882 1.430884 -1.525689
v 1.127169 1.189703 -1.607445
v 1.440239 -0.500000 -1.809145
v 1.905276 -1.000000 -1.357114
v 2.252061 -0.148480 -0.958614
v -1.944744 -0.654615 1.509780
v -1.876402 -0.154615 0.880683
v -2.466801 -0.037002 0.000000
v -2.929311 -0.750000 0.500000
v -2.553496 -0.319482 0.500000
v -1.195999 -1.000000 1.859589
v -0.748745 -0.654615 1.920475
v -0.748745 -0.154615 1.772442
v 0.000000 0.500000 1.515768
v -0.748745 0.345385 1.528198
v -1.072199 0.369418 1.495335
v 2.467025 -0.652999 0.467155
v 2.577780 -0.031893 0.554284
v 2.425840 -0.574240 -0.688416
v 2.371036 0.143867 -0.479307
v 2.049467 2.257682 0.750000
v 0.696461 2.065135 0.500000
v 0.408471 2.079305 0.000000
v 1.099880 2.251009 0.397640
v 1.761476 2.271852 0.250000
v -1.000000 0.892471 -1.327046
v -1.496441 0.711998 -1.240569
v -1.399107 0.460858 -1.654091
v -1.670929 0.772858 -0.913523
v -2.070035 0.341245 -1.240569
v -2.446345 -0.794814 -1.695350
v -1.881706 -1.000000 -1.904364
v -1.425898 -0.292027 -2.090331
v -1.065853 -0.750000 -2.051065
v -2.179154 -0.336840 -1.654091
v -2.036588 -0.794814 -2.063918
v -1.827653 -0.542027 -2.115565
v 1.821282 0.468393 1.475950
vt 0.625000 0.250000
vt 0.562500 0.250000
vt 0.562500 0.218750
vt 0.625000 0.375000
vt 0.500000 0.500000
vt 0.500000 0.375000
vt 0.500000 0.625000
vt 0.562500 0.687500
vt 0.500000 0.687500
vt 0.625000 0.875000
vt 0.562500 0.937500
vt 0.562500 0.875000
vt 0.375000 0.625000
vt 0.312500 0.750000
vt 0.250000 0.750000
vt 0.875000 0.625000
vt 0.812500 0.687500
vt 0.812500 0.625000
vt 0.625000 0.687500
vt 0.656250 0.656250
vt 0.687500 0.656250
vt 0.625000 0.500000
vt 0.687500 0.562500
vt 0.625000 0.562500
vt 0.875000 0.500000
vt 0.750000 0.562500
vt 0.750000 0.500000
vt 0.250000 0.625000
vt 0.125000 0.750000
vt 0.125000 0.625000
vt 0.125000 0.562500
vt 0.187500 0.500000
vt 0.375000 0.500000
vt 0.250000 0.500000
vt 0.437500 0.875000
vt 0.500000 0.937500
vt 0.500000 1.000000
vt 0.500000 0.812500
vt 0.437500 0.812500
vt 0.562500 0.843750
vt 0.500000 0.875000
vt 0.468750 0.687500
vt 0.437500 0.562500
vt 0.437500 0.500000
vt 0.437500 0.375000
vt 0.500000 0.312500
vt 0.437500 0.312500
vt 0.500000 0.187500
vt 0.406250 0.250000
vt 0.375000 0.187500
vt 0.437500 0.125000
vt 0.406250 0.062500
vt 0.468750 0.125000
vt 0.562500 0.062500
vt 0.500000 0.062500
vt 0.500000 0.000000
vt 0.375000 0.875000
vt 0.375000 0.812500
vt 0.437500 0.750000
vt 0.375000 0.750000
vt 0.500000 0.750000
vt 0.375000 0.375000
vt 0.406250 0.312500
vt 0.437500 0.250000
vt 0.437500 0.281250
vt 0.406250 0.281250
vt 0.500000 0.250000
vt 0.500000 0.125000
vt 0.625000 0.125000
vt 0.625000 0.437500
vt 0.562500 0.625000
vt 0.562500 1.000000
vt 0.562500 0.968750
vt 0.625000 0.937500
vt 0.875000 0.656250
vt 0.687500 0.750000
vt 0.687500 0.687500
vt 0.750000 0.625000
vt 0.625000 0.406250
vt 0.625000 0.437500
vt 0.625000 0.468750
vt 0.187500 0.750000
vt 0.156250 0.500000
vt 0.375000 0.562500
vt 0.375000 0.937500
vt 0.437500 0.937500
vt 0.500000 0.781250
vt 0.593750 0.750000
vt 0.625000 0.812500
vt 0.578125 0.781250
vt 0.406250 0.687500
vt 0.437500 0.625000
vt 0.468750 0.593750
vt 0.375000 0.125000
vt 0.500000 0.218750
vt 0.484375 0.218750
vt 0.468750 0.250000
vt 0.421875 0.250000
vt 0.390625 0.250000
vt 0.375000 0.000000
vt 0.437500 0.000000
vt 0.437500 0.062500
vt 0.375000 0.312500
vt 0.375000 0.281250
vt 0.390625 0.281250
vt 0.484375 0.250000
vt 0.687500 0.625000
vt 0.718750 0.500000
vt 0.687500 0.500000
vt 0.718750 0.625000
vt 0.625000 0.718750
vt 0.625000 0.750000
vt 0.625000 0.625000
vt 0.531250 0.750000
vt 0.562500 0.750000
vt 0.562500 0.812500
vt 0.750000 0.687500
vt 0.812500 0.750000
vt 0.750000 0.750000
vt 0.875000 0.687500
vt 0.875000 0.718750
vt 0.625000 0.093750
vt 0.562500 0.000000
vt 0.625000 1.000000
vt 0.875000 0.750000
vt 0.656250 0.500000
vt 0.406250 0.593750
vt 0.437500 1.000000
vt 0.375000 1.000000
vt 0.375000 0.250000
vt 0.515625 0.765625
vt 0.125000 0.500000
vn -0.3403 0.8933 -0.2937
vn 0.3499 0.2973 -0.8884
vn 0.9969 -0.0537 0.0568
vn -0.1355 0.7114 0.6896
vn -0.0689 -0.9944 -0.0799
vn -0.3480 0.9242 0.1574
vn 0.0457 0.9402 0.3375
vn 0.0934 0.7389 -0.6673
vn -0.3207 0.6403 -0.6980
vn -0.0508 -0.9555 0.2906
vn -0.2535 -0.8937 -0.3702
vn 0.0216 -0.9660 -0.2576
vn -0.0555 0.1238 0.9908
vn -0.1605 0.1810 0.9703
vn -0.0917 0.4701 0.8778
vn 0.8787 0.4241 0.2190
vn 0.7109 0.0549 -0.7012
vn 0.8268 0.1842 -0.5314
vn 0.3610 -0.1724 -0.9165
vn -0.0442 0.2980 -0.9535
vn -0.1094 0.4696 -0.8761
vn -0.9328 0.2770 -0.2304
vn -0.8827 0.4032 -0.2416
vn -0.8056 0.3813 0.4535
vn -0.2549 -0.0383 0.9662
vn 0.7578 0.0880 0.6466
vn 0.7564 -0.1998 0.6229
vn -0.1047 -0.6245 -0.7740
vn -0.3364 0.6127 -0.7151
vn -0.3331 0.4771 -0.8133
vn -0.8114 0.5332 0.2392
vn -0.6247 0.7506 -0.2153
vn 0.1952 0.1659 -0.9666
vn 0.9480 -0.1769 0.2646
vn -0.4446 0.8784 0.1756
vn 0.2445 -0.9273 0.2834
vn 0.1251 -0.9921 -0.0061
vn -0.4308 0.8544 0.2907
vn -0.5209 0.5281 0.6706
vn 0.5301 0.4033 -0.7459
vn -0.6647 0.7437 -0.0712
vn -0.0958 -0.9716 0.2162
vn 0.0000 -1.0000 0.0000
vn -0.0348 -0.9657 -0.2575
vn -0.0515 -0.9677 -0.2467
vn 0.1623 -0.9747 -0.1540
vn 0.0958 -0.2918 0.9517
vn 0.1283 -0.2284 0.9651
vn -0.1500 0.1448 0.9780
vn 0.0728 0.6071 0.7913
vn -0.0601 0.4212 0.9050
vn 0.8853 0.1731 0.4317
vn 0.8081 -0.5890 0.0051
vn 0.6245 0.5882 -0.5138
vn 0.6912 -0.1290 -0.7111
vn 0.0827 0.1264 -0.9885
vn 0.3940 -0.3668 -0.8427
vn -0.1198 0.2561 -0.9592
vn -0.2264 0.5670 -0.7920
vn -0.2362 0.6023 -0.7625
vn -0.9736 -0.1771 0.1443
vn -0.7180 0.6074 -0.3398
vn -0.9430 0.2801 0.1797
vn -0.5369 0.8306 -0.1480
vn -0.6187 0.4718 -0.6281
vn -0.6691 0.5416 -0.5089
vn -0.9241 0.3230 -0.2042
vn -0.8498 -0.1546 -0.5039
vn -0.6358 0.5315 0.5597
vn -0.0679 0.3587 0.9310
vn -0.1964 -0.2258 0.9542
vn 0.7477 0.1128 0.6544
vn 0.6524 0.0981 0.7515
vn -0.0388 -0.5450 -0.8375
vn 0.1055 -0.5596 -0.8220
vn -0.5570 0.4508 -0.6975
vn 0.0347 0.7189 -0.6942
vn -0.3097 0.3940 -0.8654
vn 0.6292 0.4143 -0.6577
vn 0.1135 0.8986 -0.4238
vn -0.3275 0.6547 -0.6813
vn -0.2712 0.9496 -0.1575
vn -0.0851 0.9521 -0.2938
vn 0.5201 0.0247 0.8538
vn 0.9566 0.0588 0.2853
vn 0.9545 0.2837 -0.0920
vn 0.8844 0.0610 0.4627
vn 0.7787 0.0180 0.6271
vn 0.6854 0.3117 0.6580
vn -0.3377 0.5008 0.7969
vn 0.2390 0.3822 0.8927
vn -0.3359 0.5052 0.7949
vn -0.0391 0.2552 0.9661
vn -0.3773 0.9109 0.1669
vn 0.4411 0.5745 -0.6895
vn -0.4824 0.8318 -0.2747
vn -0.0985 0.4776 0.8730
vn 0.9018 -0.1098 0.4181
vn 0.0994 0.3875 -0.9165
vn -0.5530 0.4642 0.6919
vn -0.0557 0.0826 0.9950
vn 0.6933 0.2060 -0.6906
vn 0.4140 0.2476 0.8759
vn -0.0289 0.7883 -0.6147
vn 0.8911 0.2085 0.4030
vn 0.1566 0.6026 0.7825
vn 0.2826 0.4326 0.8562
vn 0.2584 0.1895 0.9473
vn -0.2966 0.6130 0.7323
vn -0.1471 0.6783 0.7199
vn -0.0677 0.7740 0.6295
vn -0.4715 0.5275 0.7067
vn -0.1113 0.9797 0.1668
vn -0.0953 0.8386 0.5363
vn -0.7374 0.5606 0.3767
vn -0.6747 0.5179 0.5258
vn -0.0377 0.7175 0.6956
vn -0.7728 0.5284 0.3515
vn -0.0038 0.7889 0.6145
vn -0.0463 0.5708 0.8198
vn -0.4086 0.9063 0.1078
vn -0.2781 0.9329 -0.2286
vn -0.4853 0.3153 0.8155
vn -0.4940 0.7325 0.4685
vn -0.0801 0.6971 0.7125
vn -0.3899 0.8057 0.4459
vn -0.6174 0.5385 0.5735
vn -0.0448 0.1463 0.9882
vn 0.1552 0.9862 0.0573
vn 0.6927 0.2738 -0.6672
vn -0.3581 0.6208 -0.6974
vn 0.4885 0.8698 -0.0697
vn 0.5835 0.8100 0.0574
vn -0.1412 0.9393 -0.3127
vn 0.7244 0.0523 -0.6874
vn 0.7157 0.0350 -0.6976
vn 0.8031 -0.0491 -0.5939
vn -0.3899 0.8637 0.3194
vn -0.4662 0.7166 0.5189
vn -0.6176 0.6470 0.4471
vn -0.1525 0.8716 0.4660
vn -0.7324 0.6393 0.2342
vn -0.6212 0.5423 0.5657
vn -0.4528 -0.0824 0.8878
vn -0.8199 0.3881 0.4209
vn 0.0294 -0.9559 0.2922
vn 0.2281 -0.9718 -0.0603
vn -0.0249 0.4782 0.8779
vn 0.8403 0.3444 -0.4187
vn 0.0000 0.0000 -1.0000
vn -0.7088 -0.6552 0.2616
vn -0.4046 0.0479 0.9132
vn -0.1855 0.0674 0.9803
vn -0.1099 0.4692 0.8762
vn -0.0755 0.4377 0.8960
vn -0.1561 0.4335 0.8875
vn 0.9280 0.1677 -0.3326
vn -0.6084 0.6446 0.4631
vn -0.8160 0.5515 0.1733
vn -0.7184 0.5705 0.3982
vn 0.8169 0.2179 -0.5340
vn 0.8081 -0.5706 -0.1461
vn 0.8378 -0.2195 0.4999
vn 0.9250 -0.2094 0.3170
vn 0.9419 0.3150 0.1169
vn 0.6672 0.2025 0.7168
vn 0.8463 -0.5311 -0.0410
vn 0.7621 -0.6152 -0.2016
vn 0.0930 0.9587 -0.2687
vn -0.2183 0.7896 0.5734
vn -0.1834 0.9471 0.2632
vn -0.4055 0.8492 0.3384
vn -0.0886 0.9612 -0.2611
vn -0.0856 0.9577 -0.2746
vn -0.4884 0.6214 -0.6126
vn -0.4577 0.7081 -0.5377
vn -0.0375 0.8502 -0.5252
vn -0.5927 0.6736 -0.4416
vn -0.3735 0.8556 -0.3585
vn -0.3404 0.5828 -0.7378
vn -0.3399 0.8992 -0.2756
vn -0.3979 0.5900 0.7026
vn -0.1420 0.9403 -0.3092
vn -0.8327 0.2785 -0.4786
vn -0.0236 0.5356 -0.8442
vn -0.3889 0.8145 -0.4306
vn 0.5329 0.0327 0.8456
vn -0.0336 0.9174 -0.3966
vn 0.1913 -0.3458 -0.9186
vn -0.6389 0.3929 -0.6614
vn -0.5859 0.4742 -0.6571
vn -0.6305 0.3333 -0.7010
vn -0.4537 -0.7347 -0.5044
vn -0.2492 0.2634 -0.9319
vn -0.1049 -0.6244 -0.7740
vn 0.0777 -0.0243 -0.9967
vn -0.4304 -0.4074 -0.8055
vn 0.3116 0.6197 0.7203
vn 0.6540 0.1092 0.7486
vn -0.4874 0.3717 -0.7902
vn 0.2618 0.4916 0.8305
vn 0.5475 0.0154 0.8367
usemtl マテリアル
s off
f 4/1/1 95/2/1 98/3/1
f 14/4/2 15/5/2 25/6/2
f 24/7/3 49/8/3 47/9/3
f 20/10/4 84/11/4 83/12/4
f 16/13/5 28/14/5 19/15/5
f 11/16/6 61/17/6 60/18/6
f 45/19/7 94/20/7 93/21/7
f 8/22/8 68/23/8 44/24/8
f 4/25/9 43/26/9 14/27/9
f 22/28/10 1/29/10 9/30/10
f 9/30/11 38/31/11 33/32/11
f 7/33/12 22/28/12 13/34/12
f 30/35/13 82/36/13 10/37/13
f 29/38/14 30/35/14 31/39/14
f 53/40/15 83/12/15 23/41/15
f 47/9/16 87/42/16 24/7/16
f 15/5/17 74/43/17 72/44/17
f 8/22/18 24/7/18 15/5/18
f 35/45/19 25/6/19 15/5/19
f 34/46/20 35/45/20 36/47/20
f 14/4/21 25/6/21 34/46/21
f 39/48/22 37/49/22 38/50/22
f 40/51/23 78/52/23 77/53/23
f 64/54/24 76/55/24 10/56/24
f 31/39/25 19/57/25 28/58/25
f 27/59/26 28/58/26 5/60/26
f 18/61/27 31/39/27 27/59/27
f 13/62/28 103/63/28 36/47/28
f 32/64/29 102/65/29 106/66/29
f 12/67/30 34/46/30 36/47/30
f 39/48/31 26/68/31 11/69/31
f 11/69/32 98/3/32 39/48/32
f 71/70/33 15/5/33 14/4/33
f 24/7/34 48/71/34 49/8/34
f 62/72/35 85/73/35 57/74/35
f 19/15/36 22/28/36 16/13/36
f 16/13/37 5/60/37 28/14/37
f 63/75/38 61/17/38 11/16/38
f 51/76/39 91/77/39 21/78/39
f 70/79/40 42/80/40 69/81/40
f 4/25/41 60/18/41 21/78/41
f 22/28/42 80/82/42 1/29/42
f 38/31/43 101/83/43 33/32/43
f 33/32/44 13/34/44 22/28/44
f 22/28/45 9/30/45 33/32/45
f 73/84/46 22/28/46 7/33/46
f 80/85/47 19/57/47 81/86/47
f 30/35/48 81/86/48 19/57/48
f 29/38/49 23/41/49 30/35/49
f 29/38/50 52/87/50 53/40/50
f 55/88/51 51/89/51 56/90/51
f 5/60/52 86/91/52 27/59/52
f 16/13/53 66/92/53 86/91/53
f 89/93/54 15/5/54 24/7/54
f 8/22/55 48/71/55 24/7/55
f 13/62/56 72/44/56 7/33/56
f 13/62/57 35/45/57 15/5/57
f 34/46/58 25/6/58 35/45/58
f 34/46/59 12/67/59 14/4/59
f 95/2/60 14/4/60 12/67/60
f 38/50/61 9/94/61 40/51/61
f 40/51/62 26/68/62 38/50/62
f 26/68/63 39/48/63 38/50/63
f 39/48/64 96/95/64 99/96/64
f 32/64/65 99/96/65 41/97/65
f 104/98/66 39/48/66 32/64/66
f 100/99/67 38/50/67 37/49/67
f 9/94/68 78/52/68 40/51/68
f 1/100/69 75/101/69 79/102/69
f 85/73/70 10/37/70 84/11/70
f 31/39/71 30/35/71 19/57/71
f 27/59/72 31/39/72 28/58/72
f 52/87/73 31/39/73 18/61/73
f 36/47/74 35/45/74 13/62/74
f 33/103/75 101/104/75 105/105/75
f 37/49/76 104/98/76 105/105/76
f 102/65/77 41/97/77 36/47/77
f 97/106/78 36/47/78 41/97/78
f 71/70/79 69/81/79 8/22/79
f 44/24/80 68/23/80 67/107/80
f 70/108/81 43/26/81 42/109/81
f 43/26/82 21/78/82 68/23/82
f 68/23/83 92/110/83 67/107/83
f 49/8/84 90/111/84 6/112/84
f 49/8/85 48/71/85 45/19/85
f 48/71/86 17/113/86 45/19/86
f 47/9/87 50/114/87 18/61/87
f 47/9/88 49/8/88 46/115/88
f 49/8/89 55/88/89 46/115/89
f 54/116/90 51/89/90 20/10/90
f 46/115/91 56/90/91 50/114/91
f 53/40/92 54/116/92 20/10/92
f 53/40/93 52/87/93 54/116/93
f 21/78/94 91/77/94 93/21/94
f 71/70/95 70/79/95 69/81/95
f 4/25/96 21/78/96 43/26/96
f 23/41/97 29/38/97 53/40/97
f 47/9/98 18/61/98 27/59/98
f 14/4/99 70/79/99 71/70/99
f 59/117/100 51/76/100 21/78/100
f 55/88/101 6/112/101 51/89/101
f 44/24/102 48/71/102 8/22/102
f 52/87/103 29/38/103 31/39/103
f 44/24/104 67/107/104 17/113/104
f 47/9/105 46/115/105 50/114/105
f 49/8/89 6/112/89 55/88/89
f 54/116/106 56/90/106 51/89/106
f 50/114/107 56/90/107 54/116/107
f 46/115/108 55/88/108 56/90/108
f 61/17/109 57/118/109 20/119/109
f 61/17/110 58/120/110 57/118/110
f 65/121/111 57/118/111 58/120/111
f 60/18/112 59/117/112 21/78/112
f 60/18/113 61/17/113 59/117/113
f 61/17/114 20/119/114 59/117/114
f 64/54/115 63/122/115 11/69/115
f 62/123/116 64/54/116 10/56/116
f 53/40/117 20/10/117 83/12/117
f 64/54/118 11/69/118 26/68/118
f 84/11/119 57/74/119 85/73/119
f 57/74/120 2/124/120 62/72/120
f 63/75/121 58/120/121 61/17/121
f 4/25/122 11/16/122 60/18/122
f 64/54/123 2/125/123 65/121/123
f 59/117/124 20/119/124 51/76/124
f 65/121/125 2/125/125 57/118/125
f 84/11/126 20/10/126 57/74/126
f 62/72/127 10/37/127 85/73/127
f 30/35/128 23/41/128 82/36/128
f 17/113/129 94/20/129 45/19/129
f 71/70/130 8/22/130 15/5/130
f 70/108/131 14/27/131 43/26/131
f 68/23/132 8/22/132 69/126/132
f 69/126/133 42/109/133 68/23/133
f 42/109/134 43/26/134 68/23/134
f 44/24/102 17/113/102 48/71/102
f 72/44/135 73/84/135 7/33/135
f 72/44/136 74/43/136 73/84/136
f 88/127/137 73/84/137 74/43/137
f 79/102/138 76/55/138 26/68/138
f 79/102/139 75/101/139 76/55/139
f 75/101/140 10/56/140 76/55/140
f 77/53/141 79/102/141 26/68/141
f 77/53/142 78/52/142 79/102/142
f 78/52/143 1/100/143 79/102/143
f 80/85/144 10/37/144 75/128/144
f 64/54/145 26/68/145 76/55/145
f 22/28/146 19/15/146 80/82/146
f 73/84/147 16/13/147 22/28/147
f 30/35/148 10/37/148 81/86/148
f 24/7/149 66/92/149 89/93/149
f 13/62/56 15/5/56 72/44/56
f 40/51/150 77/53/150 26/68/150
f 9/94/151 1/100/151 78/52/151
f 75/128/152 1/129/152 80/85/152
f 80/85/153 81/86/153 10/37/153
f 83/12/154 82/36/154 23/41/154
f 83/12/155 84/11/155 82/36/155
f 84/11/156 10/37/156 82/36/156
f 89/93/157 88/127/157 74/43/157
f 64/54/158 62/123/158 2/125/158
f 65/121/159 58/120/159 64/54/159
f 58/120/160 63/122/160 64/54/160
f 89/93/161 66/92/161 88/127/161
f 66/92/162 16/13/162 88/127/162
f 86/91/163 87/42/163 27/59/163
f 86/91/164 66/92/164 87/42/164
f 66/92/165 24/7/165 87/42/165
f 47/9/166 27/59/166 87/42/166
f 5/60/167 16/13/167 86/91/167
f 89/93/54 74/43/54 15/5/54
f 88/127/168 16/13/168 73/84/168
f 93/21/169 90/111/169 45/19/169
f 93/21/170 91/77/170 90/111/170
f 91/77/171 6/112/171 90/111/171
f 93/21/172 92/110/172 21/78/172
f 93/21/173 94/20/173 92/110/173
f 94/20/174 67/107/174 92/110/174
f 99/96/175 97/106/175 41/97/175
f 99/96/176 96/95/176 97/106/176
f 96/95/177 12/67/177 97/106/177
f 98/3/178 96/95/178 39/48/178
f 98/3/179 95/2/179 96/95/179
f 95/2/180 12/67/180 96/95/180
f 11/69/181 4/1/181 98/3/181
f 51/76/182 6/112/182 91/77/182
f 95/2/183 4/1/183 14/4/183
f 32/64/184 39/48/184 99/96/184
f 97/106/185 12/67/185 36/47/185
f 68/23/186 21/78/186 92/110/186
f 49/8/187 45/19/187 90/111/187
f 17/113/188 67/107/188 94/20/188
f 105/105/189 106/66/189 33/103/189
f 105/105/190 104/98/190 106/66/190
f 104/98/191 32/64/191 106/66/191
f 105/105/192 100/99/192 37/49/192
f 105/105/193 101/104/193 100/99/193
f 101/104/194 3/130/194 100/99/194
f 106/66/195 103/63/195 33/103/195
f 106/66/196 102/65/196 103/63/196
f 102/65/197 36/47/197 103/63/197
f 54/116/198 107/131/198 50/114/198
f 18/61/199 107/131/199 52/87/199
f 13/62/28 33/103/28 103/63/28
f 38/31/43 3/132/43 101/83/43
f 104/98/66 37/49/66 39/48/66
f 100/99/67 3/130/67 38/50/67
f 102/65/200 32/64/200 41/97/200
f 54/116/201 52/87/201 107/131/201
f 18/61/202 50/114/202 107/131/202
l 32 40
