# Blender v2.92.0 OBJ File: ''
# www.blender.org
mtllib TankBullet.mtl
o ICO球
v 0.069487 -0.298283 0.050484
v -0.048737 -0.255196 0.149999
v 0.254250 -0.157137 0.083753
v -0.157719 -0.255196 -0.000000
v -0.070572 -0.210220 -0.217202
v 0.127597 -0.255196 -0.092703
v 0.313166 0.016078 -0.000000
v -0.001086 -0.157138 0.267687
v 0.000000 -0.000000 0.300000
v -0.254922 -0.157138 -0.081687
v -0.206457 -0.157721 0.149999
v -0.313166 -0.016078 -0.000000
v -0.176336 0.000000 -0.242705
v 0.158224 -0.157137 -0.215924
v 0.176336 0.000000 -0.242705
v 0.176336 -0.000000 0.242705
v -0.176336 -0.000000 0.242705
v 0.000000 0.000000 -0.300000
v 0.070572 0.210220 0.217202
v 0.254922 0.157138 0.081687
v -0.158224 0.157137 0.215924
v -0.127597 0.255196 0.092703
v -0.254250 0.157137 -0.083753
v -0.069487 0.298283 -0.050484
v 0.001086 0.157138 -0.267687
v 0.048737 0.255196 -0.149999
v 0.211495 0.219421 -0.073868
vt 0.090909 0.000000
vt 0.045454 0.078731
vt 0.136363 0.078731
vt 0.272727 0.000000
vt 0.227273 0.078731
vt 0.340601 0.117563
vt 0.454545 0.000000
vt 0.386671 0.117563
vt 0.500000 0.078731
vt 0.227889 0.157461
vt 0.090909 0.157461
vt 0.181818 0.236191
vt 0.318182 0.236191
vt 0.681202 0.157461
vt 0.636364 0.236191
vt 0.772726 0.236191
vt 0.863020 0.157461
vt 0.863635 0.236191
vt 0.954545 0.236191
vt 0.409090 0.236191
vt 0.499384 0.157461
vt 0.500000 0.236191
vt 0.568182 0.354286
vt 0.500000 0.393651
vt 0.545454 0.472382
vt 0.408475 0.314921
vt 0.409090 0.393651
vt 0.340601 0.432483
vt 0.226657 0.314921
vt 0.204854 0.432483
vt 0.136363 0.393651
vt 0.090909 0.314921
vt 0.954545 0.393651
vt 0.841216 0.354819
vt 0.909090 0.472382
vt 0.953930 0.314921
vt 0.795146 0.354819
vt 0.681818 0.393651
vt 0.727272 0.472382
vt 0.682434 0.314921
vt 0.045454 0.236191
vt 0.000000 0.157461
vt 0.590909 0.078731
vt 0.659399 0.039899
vt 0.863635 0.078731
vt 0.795145 0.039899
vn 0.2203 -0.9620 0.1613
vn -0.1827 -0.8505 0.4933
vn -0.4742 -0.8803 -0.0125
vn -0.2247 -0.6881 -0.6899
vn 0.4253 -0.8507 -0.3090
vn -0.8135 -0.5010 -0.2955
vn -0.6980 -0.5026 0.5101
vn -0.9992 -0.0091 0.0381
vn -0.6065 0.0208 -0.7948
vn 0.8079 -0.5178 0.2813
vn 0.9989 0.0010 -0.0470
vn 0.6065 -0.0208 0.7948
vn 0.0347 -0.5181 0.8546
vn 0.0053 0.0498 0.9987
vn -0.6223 -0.0259 0.7824
vn -0.0053 -0.0498 -0.9987
vn 0.5436 -0.4969 -0.6764
vn 0.6320 0.0642 -0.7723
vn 0.6411 0.7215 -0.2615
vn 0.1875 0.8504 -0.4917
vn -0.1911 0.9694 -0.1538
vn -0.0119 0.5235 -0.8520
vn -0.8079 0.5178 -0.2813
vn -0.4253 0.8507 0.3090
vn -0.5436 0.4969 0.6764
vn 0.2389 0.7058 0.6670
vn 0.7807 0.5286 0.3334
usemtl マテリアル.010
s 1
f 1/1/1 2/2/2 4/3/3
f 1/4/1 4/5/3 5/6/4
f 1/7/1 5/8/4 6/9/5
f 10/10/6 11/11/7 12/12/8
f 5/6/4 10/10/6 13/13/9
f 3/14/10 7/15/11 16/16/12
f 8/17/13 9/18/14 17/19/15
f 5/6/4 13/13/9 18/20/16
f 14/21/17 15/22/18 7/15/11
f 27/23/19 26/24/20 24/25/21
f 27/23/19 25/26/22 26/24/20
f 26/27/20 25/26/22 24/28/21
f 25/26/22 23/29/23 24/28/21
f 24/30/21 23/29/23 22/31/24
f 23/29/23 21/32/25 22/31/24
f 22/33/24 19/34/26 24/35/21
f 22/33/24 21/36/25 19/34/26
f 19/37/26 27/38/19 24/39/21
f 19/37/26 20/40/27 27/38/19
f 7/15/11 27/23/19 20/40/27
f 7/15/11 15/22/18 27/23/19
f 15/22/18 25/26/22 27/23/19
f 18/20/16 13/13/9 25/26/22
f 13/13/9 23/29/23 25/26/22
f 12/12/8 21/32/25 23/29/23
f 17/19/15 9/18/14 21/36/25
f 9/18/14 19/34/26 21/36/25
f 16/16/12 20/40/27 19/34/26
f 16/16/12 7/15/11 20/40/27
f 15/22/18 18/20/16 25/26/22
f 15/22/18 14/21/17 18/20/16
f 14/21/17 5/6/4 18/20/16
f 13/13/9 12/12/8 23/29/23
f 13/13/9 10/10/6 12/12/8
f 12/12/8 17/41/15 21/32/25
f 12/12/8 11/11/7 17/41/15
f 11/11/7 8/42/13 17/41/15
f 9/18/14 16/16/12 19/34/26
f 9/18/14 8/17/13 16/16/12
f 8/17/13 3/14/10 16/16/12
f 3/14/10 14/21/17 7/15/11
f 6/9/5 5/8/4 14/21/17
f 5/6/4 4/5/3 10/10/6
f 4/3/3 11/11/7 10/10/6
f 4/3/3 2/2/2 11/11/7
f 2/2/2 8/42/13 11/11/7
f 3/14/10 6/43/5 14/21/17
f 3/14/10 1/44/1 6/43/5
f 2/45/2 1/46/1 8/17/13
f 1/46/1 3/14/10 8/17/13
