# Blender v2.92.0 OBJ File: ''
# www.blender.org
mtllib PattonMainGun.mtl
o 円柱.001
v -0.039906 3.609589 8.335272
v -0.039906 3.609590 3.335271
v -0.094833 3.602799 3.335271
v -0.101575 3.600753 8.335273
v -0.151020 3.575884 3.335271
v -0.151020 3.575883 8.335272
v -0.181327 3.551012 3.335271
v -0.181327 3.551011 8.335272
v -0.206200 3.520705 3.335271
v -0.206200 3.520703 8.335272
v -0.224682 3.486126 3.335271
v -0.224682 3.486125 8.335272
v -0.236063 3.448607 3.335271
v -0.236063 3.448606 8.335272
v -0.239906 3.409590 3.335271
v -0.239906 3.409589 8.335272
v -0.233115 3.354662 3.335271
v -0.236063 3.370571 8.335272
v -0.224682 3.333053 8.335272
v -0.206200 3.298476 3.335271
v -0.206200 3.298475 8.335272
v -0.181327 3.268168 3.335271
v -0.164588 3.252105 8.335273
v -0.151020 3.243295 3.335271
v -0.116442 3.224813 3.335271
v -0.094833 3.216380 8.335273
v -0.078924 3.213433 3.335271
v -0.039906 3.209589 3.335271
v -0.039906 3.209589 8.335272
v -0.000888 3.213433 3.335271
v -0.000888 3.213432 8.335272
v 0.036631 3.224813 3.335271
v 0.036631 3.224813 8.335272
v 0.071208 3.243295 3.335271
v 0.071208 3.243294 8.335272
v 0.101516 3.268168 3.335271
v 0.101516 3.268167 8.335272
v 0.126388 3.298476 3.335271
v 0.126388 3.298475 8.335272
v 0.144870 3.333054 3.335271
v 0.144870 3.333053 8.335272
v 0.156251 3.370573 3.335271
v 0.156251 3.370571 8.335272
v 0.160094 3.409590 3.335271
v 0.160094 3.409589 8.335272
v 0.156251 3.448609 3.335271
v 0.156251 3.448606 8.335272
v 0.144870 3.486126 3.335271
v 0.144870 3.486125 8.335272
v 0.126388 3.520705 3.335271
v 0.126388 3.520703 8.335272
v 0.090225 3.562602 3.335271
v 0.101515 3.551011 8.335272
v 0.071208 3.575883 8.335272
v 0.036631 3.594366 3.335271
v 0.036631 3.594365 8.335272
v -0.000888 3.605747 3.335271
v -0.000888 3.605746 8.335272
vt 1.000000 1.000000
vt 1.000000 0.500000
vt 0.955933 0.500000
vt 0.950318 1.000000
vt 0.906250 0.500000
vt 0.906250 1.000000
vt 0.875000 0.500000
vt 0.875000 1.000000
vt 0.843750 0.500000
vt 0.843750 1.000000
vt 0.812500 0.500000
vt 0.812500 1.000000
vt 0.781250 0.500000
vt 0.781250 1.000000
vt 0.750000 0.500000
vt 0.750000 1.000000
vt 0.705933 0.500000
vt 0.687500 1.000000
vt 0.656250 0.500000
vt 0.656250 1.000000
vt 0.625000 0.500000
vt 0.606565 1.000000
vt 0.593750 0.500000
vt 0.562500 0.500000
vt 0.544067 1.000000
vt 0.531250 0.500000
vt 0.500000 0.500000
vt 0.500000 1.000000
vt 0.468750 0.500000
vt 0.468750 1.000000
vt 0.437500 0.500000
vt 0.437500 1.000000
vt 0.406250 0.500000
vt 0.406250 1.000000
vt 0.375000 0.500000
vt 0.375000 1.000000
vt 0.343750 0.500000
vt 0.343750 1.000000
vt 0.312500 0.500000
vt 0.312500 1.000000
vt 0.281250 0.500000
vt 0.281250 1.000000
vt 0.250000 0.500000
vt 0.250000 1.000000
vt 0.218750 0.500000
vt 0.218750 1.000000
vt 0.187500 0.500000
vt 0.187500 1.000000
vt 0.156250 0.500000
vt 0.156250 1.000000
vt 0.112184 0.500000
vt 0.093750 1.000000
vt 0.062500 0.500000
vt 0.028269 0.341844
vt 0.471731 0.158156
vt 0.158156 0.028269
vt 0.062500 1.000000
vt 0.031250 0.500000
vt 0.031250 1.000000
vt 0.000000 0.500000
vt 0.985388 0.296822
vt 0.514611 0.203179
vt 0.796822 0.014612
vt 0.718750 1.000000
vt 0.125000 1.000000
vt 0.250000 0.490000
vt 0.323377 0.477333
vt 0.203179 0.485389
vt 0.158156 0.471731
vt 0.080295 0.419706
vt 0.116663 0.449553
vt 0.050447 0.383337
vt 0.010000 0.250000
vt 0.014612 0.296822
vt 0.014611 0.203179
vt 0.028269 0.158156
vt 0.050447 0.116663
vt 0.080294 0.080294
vt 0.116663 0.050447
vt 0.250000 0.010000
vt 0.203178 0.014612
vt 0.398251 0.062686
vt 0.449553 0.116663
vt 0.490000 0.250000
vt 0.485388 0.203178
vt 0.485388 0.296822
vt 0.471731 0.341844
vt 0.419706 0.419706
vt 0.449553 0.383337
vt 0.383337 0.449553
vt 0.315287 0.020213
vt 0.000000 1.000000
vt 0.703179 0.485389
vt 0.815287 0.479787
vt 0.750000 0.490000
vt 0.883337 0.449553
vt 0.949553 0.383337
vt 0.919706 0.419706
vt 0.971731 0.341844
vt 0.979787 0.184713
vt 0.990000 0.250000
vt 0.949553 0.116663
vt 0.919706 0.080294
vt 0.883337 0.050447
vt 0.841844 0.028269
vt 0.703178 0.014612
vt 0.750000 0.010000
vt 0.616663 0.050447
vt 0.658156 0.028269
vt 0.550447 0.116663
vt 0.580294 0.080294
vt 0.528269 0.158156
vt 0.514612 0.296822
vt 0.510000 0.250000
vt 0.550447 0.383337
vt 0.528269 0.341844
vt 0.595211 0.431947
vt 0.658156 0.471731
vn -0.0675 0.4713 0.8794
vn -0.1227 0.9924 0.0000
vn -0.2079 0.7102 -0.6726
vn -0.2217 0.7060 0.6726
vn -0.2057 0.4293 -0.8794
vn -0.6344 0.7730 0.0000
vn -0.7730 0.6344 0.0000
vn -0.8819 0.4714 0.0000
vn -0.9569 0.2903 0.0000
vn -0.9952 0.0980 0.0000
vn -0.9952 -0.0982 -0.0003
vn -0.9924 -0.1227 -0.0000
vn -0.9924 -0.1234 0.0000
vn -0.8821 -0.4711 -0.0000
vn -0.9019 -0.4320 -0.0003
vn -0.9018 -0.4322 -0.0003
vn -0.7444 -0.6677 0.0003
vn -0.7730 -0.6344 -0.0000
vn -0.7728 -0.6347 0.0000
vn -0.2254 -0.4390 0.8698
vn -0.6344 -0.7730 -0.0004
vn -0.5554 -0.8316 -0.0000
vn -0.4712 -0.8820 0.0003
vn -0.2180 -0.7096 0.6700
vn -0.2903 -0.9569 -0.0004
vn -0.1949 -0.9808 -0.0000
vn -0.0982 -0.9952 0.0003
vn 0.0980 -0.9952 -0.0000
vn 0.2903 -0.9569 -0.0000
vn 0.4714 -0.8819 -0.0000
vn 0.6344 -0.7730 -0.0000
vn 0.7730 -0.6344 -0.0000
vn 0.8819 -0.4714 -0.0000
vn 0.9569 -0.2903 -0.0000
vn 0.9952 -0.0980 -0.0000
vn 0.9952 0.0980 0.0000
vn 0.9569 0.2903 0.0000
vn 0.8819 0.4714 0.0000
vn 0.7729 0.6345 -0.0003
vn 0.7570 0.6534 0.0000
vn 0.7565 0.6539 0.0000
vn 0.4717 0.8818 -0.0000
vn 0.5099 0.8603 -0.0003
vn 0.5097 0.8604 -0.0003
vn -0.0000 -0.0000 1.0000
vn 0.2903 0.9569 0.0000
vn 0.0980 0.9952 0.0000
vn 0.0000 0.0000 -1.0000
vn -0.4493 0.8934 0.0000
vn -0.9808 -0.1949 0.0000
vn -0.9569 -0.2903 0.0004
vn -0.8819 -0.4714 -0.0000
vn -0.7443 -0.6679 0.0003
vn -0.0581 -0.4701 0.8807
vn 0.7072 0.7070 0.0000
vn 0.6344 0.7730 0.0004
vn 0.4714 0.8819 0.0000
vn 0.0001 0.0000 1.0000
vn -0.0002 0.0000 1.0000
vn -0.0001 0.0000 1.0000
vn 0.0002 0.0000 1.0000
vn 0.0000 0.0001 1.0000
vn 0.0001 0.0000 -1.0000
usemtl マテリアル.043
s 1
f 1/1/1 2/2/2 3/3/3
f 4/4/4 3/3/3 5/5/5
f 6/6/6 5/5/6 7/7/6
f 8/8/7 7/7/7 9/9/7
f 10/10/8 9/9/8 11/11/8
f 12/12/9 11/11/9 13/13/9
f 14/14/10 13/13/10 15/15/10
f 16/16/11 15/15/12 17/17/13
f 19/18/14 17/17/15 20/19/16
f 21/20/17 20/19/18 22/21/19
f 23/22/20 22/21/21 24/23/22
f 23/22/20 24/23/22 25/24/23
f 26/25/24 25/24/25 27/26/26
f 26/25/24 27/26/26 28/27/27
f 29/28/28 28/27/28 30/29/28
f 31/30/29 30/29/29 32/31/29
f 33/32/30 32/31/30 34/33/30
f 35/34/31 34/33/31 36/35/31
f 37/36/32 36/35/32 38/37/32
f 39/38/33 38/37/33 40/39/33
f 41/40/34 40/39/34 42/41/34
f 43/42/35 42/41/35 44/43/35
f 45/44/36 44/43/36 46/45/36
f 47/46/37 46/45/37 48/47/37
f 49/48/38 48/47/38 50/49/38
f 51/50/39 50/49/40 52/51/41
f 54/52/42 52/51/43 55/53/44
f 49/54/45 19/55/45 33/56/45
f 56/57/46 55/53/46 57/58/46
f 58/59/47 57/58/47 2/60/47
f 13/61/48 42/62/48 27/63/48
f 1/1/1 3/3/3 4/4/4
f 4/4/4 5/5/5 6/6/49
f 6/6/6 7/7/6 8/8/6
f 8/8/7 9/9/7 10/10/7
f 10/10/8 11/11/8 12/12/8
f 12/12/9 13/13/9 14/14/9
f 14/14/10 15/15/10 16/16/10
f 16/16/11 17/17/13 18/64/50
f 18/64/50 17/17/13 19/18/51
f 19/18/14 20/19/16 21/20/52
f 21/20/17 22/21/19 23/22/53
f 23/22/20 25/24/23 26/25/24
f 26/25/24 28/27/27 29/28/54
f 29/28/28 30/29/28 31/30/28
f 31/30/29 32/31/29 33/32/29
f 33/32/30 34/33/30 35/34/30
f 35/34/31 36/35/31 37/36/31
f 37/36/32 38/37/32 39/38/32
f 39/38/33 40/39/33 41/40/33
f 41/40/34 42/41/34 43/42/34
f 43/42/35 44/43/35 45/44/35
f 45/44/36 46/45/36 47/46/36
f 47/46/37 48/47/37 49/48/37
f 49/48/38 50/49/38 51/50/38
f 51/50/39 52/51/41 53/65/55
f 53/65/55 52/51/41 54/52/56
f 54/52/42 55/53/44 56/57/57
f 1/66/1 4/67/4 58/68/45
f 58/68/45 4/67/4 56/69/45
f 56/69/45 53/70/45 54/71/58
f 53/70/45 49/54/45 51/72/59
f 49/54/45 45/73/60 47/74/61
f 45/73/60 49/54/45 43/75/45
f 43/75/45 49/54/45 41/76/45
f 41/76/45 33/56/45 39/77/45
f 39/77/45 33/56/45 37/78/58
f 37/78/58 33/56/45 35/79/60
f 33/56/45 29/80/54 31/81/45
f 23/82/20 19/55/45 21/83/60
f 19/55/45 16/84/45 18/85/45
f 16/84/45 19/55/45 14/86/45
f 14/86/45 19/55/45 12/87/45
f 12/87/45 8/88/45 10/89/60
f 8/88/45 4/67/4 6/90/62
f 56/69/45 4/67/4 53/70/45
f 53/70/45 4/67/4 49/54/45
f 33/56/45 19/55/45 29/80/54
f 29/80/54 19/55/45 26/91/24
f 26/91/24 19/55/45 23/82/20
f 12/87/45 19/55/45 8/88/45
f 8/88/45 19/55/45 4/67/4
f 49/54/45 33/56/45 41/76/45
f 4/67/4 19/55/45 49/54/45
f 56/57/46 57/58/46 58/59/46
f 58/59/47 2/60/47 1/92/47
f 57/93/48 3/94/3 2/95/48
f 5/96/5 9/97/48 7/98/48
f 9/97/48 5/96/5 11/99/48
f 11/99/48 5/96/5 13/61/48
f 13/61/48 17/100/48 15/101/63
f 17/100/48 13/61/48 20/102/48
f 20/102/48 27/63/48 22/103/48
f 22/103/48 27/63/48 24/104/48
f 24/104/48 27/63/48 25/105/48
f 27/63/48 30/106/48 28/107/48
f 30/106/48 34/108/48 32/109/48
f 34/108/48 38/110/48 36/111/48
f 38/110/48 42/62/48 40/112/48
f 42/62/48 46/113/48 44/114/48
f 46/113/48 50/115/48 48/116/48
f 50/115/48 57/93/48 52/117/48
f 52/117/48 57/93/48 55/118/48
f 57/93/48 5/96/5 3/94/3
f 27/63/48 42/62/48 30/106/48
f 30/106/48 42/62/48 34/108/48
f 34/108/48 42/62/48 38/110/48
f 42/62/48 57/93/48 46/113/48
f 46/113/48 57/93/48 50/115/48
f 57/93/48 13/61/48 5/96/5
f 13/61/48 27/63/48 20/102/48
f 57/93/48 42/62/48 13/61/48
o 円柱.002
v -0.039906 3.709589 9.310983
v -0.039906 3.709589 8.310983
v -0.098433 3.703825 8.310983
v -0.098433 3.703825 9.310983
v -0.154711 3.686753 8.310983
v -0.154711 3.686753 9.310983
v -0.206577 3.659029 8.310983
v -0.235102 3.639107 9.310983
v -0.252038 3.621721 8.310983
v -0.289347 3.576260 8.310983
v -0.289347 3.576260 9.310983
v -0.326650 3.502097 8.310983
v -0.317070 3.524394 9.310983
v -0.334141 3.468116 9.310983
v -0.339906 3.409589 8.310983
v -0.339906 3.409589 9.310983
v -0.334141 3.351062 8.310983
v -0.326650 3.317080 9.310983
v -0.317070 3.294784 8.310983
v -0.289347 3.242918 8.310983
v -0.289347 3.242918 9.310983
v -0.252038 3.197457 8.310983
v -0.226933 3.173366 9.310983
v -0.206577 3.160148 8.310983
v -0.132414 3.122844 8.310983
v -0.154711 3.132425 9.310983
v -0.098433 3.115354 9.310983
v -0.039906 3.109589 8.310983
v -0.039906 3.109589 9.310983
v 0.018621 3.115354 8.310983
v 0.018621 3.115354 9.310983
v 0.074899 3.132426 8.310983
v 0.074899 3.132426 9.310983
v 0.126765 3.160149 8.310983
v 0.126765 3.160148 9.310983
v 0.172226 3.197457 8.310983
v 0.172226 3.197457 9.310983
v 0.209535 3.242918 8.310983
v 0.209535 3.242918 9.310983
v 0.237258 3.294784 8.310983
v 0.237258 3.294784 9.310983
v 0.254330 3.351062 8.310983
v 0.254330 3.351062 9.310983
v 0.260094 3.409589 8.310983
v 0.260094 3.409589 9.310983
v 0.254330 3.468117 8.310983
v 0.254330 3.468117 9.310983
v 0.237258 3.524395 8.310983
v 0.237258 3.524394 9.310983
v 0.209535 3.576261 8.310983
v 0.209535 3.576261 9.310983
v 0.155289 3.639108 8.310983
v 0.147120 3.645812 9.310983
v 0.074899 3.686753 8.310983
v 0.074899 3.686753 9.310983
v 0.018621 3.703825 8.310983
v 0.018621 3.703825 9.310983
vt 1.000000 1.000000
vt 1.000000 0.500000
vt 0.968750 0.500000
vt 0.968750 1.000000
vt 0.937500 0.500000
vt 0.937500 1.000000
vt 0.906250 0.500000
vt 0.887818 1.000000
vt 0.875000 0.500000
vt 0.843750 0.500000
vt 0.843750 1.000000
vt 0.799685 0.500000
vt 0.781250 1.000000
vt 0.750000 0.500000
vt 0.750000 1.000000
vt 0.718750 0.500000
vt 0.700315 1.000000
vt 0.687500 0.500000
vt 0.656250 0.500000
vt 0.656250 1.000000
vt 0.625000 0.500000
vt 0.606567 1.000000
vt 0.593750 0.500000
vt 0.549685 0.500000
vt 0.531250 1.000000
vt 0.500000 0.500000
vt 0.500000 1.000000
vt 0.468750 0.500000
vt 0.468750 1.000000
vt 0.437500 0.500000
vt 0.437500 1.000000
vt 0.406250 0.500000
vt 0.406250 1.000000
vt 0.375000 0.500000
vt 0.375000 1.000000
vt 0.343750 0.500000
vt 0.343750 1.000000
vt 0.312500 0.500000
vt 0.312500 1.000000
vt 0.281250 0.500000
vt 0.281250 1.000000
vt 0.250000 0.500000
vt 0.250000 1.000000
vt 0.218750 0.500000
vt 0.218750 1.000000
vt 0.187500 0.500000
vt 0.187500 1.000000
vt 0.156250 0.500000
vt 0.156250 1.000000
vt 0.112182 0.500000
vt 0.106567 1.000000
vt 0.062500 0.500000
vt 0.028269 0.341844
vt 0.477332 0.176619
vt 0.158156 0.028269
vt 0.062500 1.000000
vt 0.031250 0.500000
vt 0.031250 1.000000
vt 0.000000 0.500000
vt 0.977332 0.323381
vt 0.514611 0.203179
vt 0.823381 0.022668
vt 0.812500 1.000000
vt 0.562500 1.000000
vt 0.341844 0.471731
vt 0.250000 0.490000
vt 0.296822 0.485388
vt 0.203179 0.485389
vt 0.158156 0.471731
vt 0.101747 0.437312
vt 0.050447 0.383337
vt 0.010000 0.250000
vt 0.014612 0.296822
vt 0.014611 0.203179
vt 0.028269 0.158156
vt 0.050447 0.116663
vt 0.080294 0.080294
vt 0.116663 0.050447
vt 0.250000 0.010000
vt 0.203178 0.014612
vt 0.341844 0.028269
vt 0.296822 0.014612
vt 0.398254 0.062689
vt 0.449553 0.116663
vt 0.490000 0.250000
vt 0.485388 0.296822
vt 0.471731 0.341844
vt 0.404789 0.431948
vt 0.449553 0.383337
vt 0.000000 1.000000
vt 0.703179 0.485389
vt 0.796822 0.485388
vt 0.750000 0.490000
vt 0.883337 0.449553
vt 0.841844 0.471731
vt 0.949553 0.383337
vt 0.919706 0.419706
vt 0.985388 0.203178
vt 0.990000 0.250000
vt 0.971731 0.158156
vt 0.949553 0.116663
vt 0.919706 0.080294
vt 0.883337 0.050447
vt 0.703178 0.014612
vt 0.750000 0.010000
vt 0.616663 0.050447
vt 0.658156 0.028269
vt 0.550447 0.116663
vt 0.580294 0.080294
vt 0.528269 0.158156
vt 0.514612 0.296822
vt 0.510000 0.250000
vt 0.550447 0.383337
vt 0.528269 0.341844
vt 0.595212 0.431949
vt 0.658156 0.471731
vn -0.0980 0.9952 0.0000
vn -0.2903 0.9569 0.0000
vn -0.2418 0.4096 0.8796
vn -0.4714 0.8819 0.0000
vn -0.4737 0.8807 0.0002
vn -0.7535 0.6574 -0.0000
vn -0.6344 0.7730 -0.0027
vn -0.7082 0.7060 -0.0003
vn -0.7722 0.6354 0.0020
vn -0.8825 0.4702 -0.0020
vn -0.8934 0.4494 0.0000
vn -0.8957 0.4446 0.0000
vn -0.9949 0.1006 -0.0002
vn -0.9899 0.1418 -0.0026
vn -0.9901 0.1402 -0.0025
vn -0.4709 -0.0667 0.8796
vn -0.9952 -0.0980 0.0000
vn -0.9949 -0.1006 0.0002
vn -0.8957 -0.4446 -0.0000
vn -0.9569 -0.2903 -0.0027
vn -0.9233 -0.3841 -0.0003
vn -0.8825 -0.4702 0.0020
vn -0.7454 -0.6667 0.0025
vn -0.7730 -0.6344 0.0000
vn -0.7714 -0.6364 0.0002
vn -0.2459 -0.4300 0.8687
vn -0.6344 -0.7730 -0.0027
vn -0.3972 -0.6129 -0.6831
vn -0.2209 -0.4433 -0.8687
vn -0.1006 -0.9949 -0.0002
vn -0.1418 -0.9899 -0.0026
vn -0.1402 -0.9901 -0.0025
vn 0.0980 -0.9952 0.0000
vn 0.2903 -0.9569 0.0000
vn 0.4714 -0.8819 -0.0000
vn 0.6344 -0.7730 -0.0000
vn 0.7730 -0.6344 0.0000
vn 0.8819 -0.4714 0.0000
vn 0.9569 -0.2903 0.0000
vn 0.9952 -0.0980 0.0000
vn 0.9952 0.0980 0.0000
vn 0.9569 0.2903 0.0000
vn 0.8819 0.4714 0.0000
vn 0.7449 0.6671 0.0015
vn 0.7570 0.6534 0.0000
vn 0.6422 0.7665 -0.0008
vn 0.4635 0.5766 0.6728
vn 0.5090 0.8608 -0.0015
vn 0.0000 0.0000 1.0000
vn -0.4733 -0.0678 0.8783
vn 0.2903 0.9569 0.0000
vn 0.0980 0.9952 0.0000
vn -0.0000 0.0000 -1.0000
vn -0.2438 0.4113 0.8783
vn -0.7570 0.6534 0.0000
vn -0.9233 0.3841 0.0003
vn -0.9569 0.2903 0.0027
vn -0.9952 0.0980 0.0000
vn -0.8934 -0.4494 0.0000
vn -0.7443 -0.6679 0.0026
vn -0.2890 -0.6707 0.6831
vn -0.2903 -0.9569 0.0027
vn -0.0980 -0.9952 0.0000
vn 0.2336 0.4121 0.8807
vn 0.0001 0.0000 1.0000
vn -0.0001 0.0000 1.0000
vn 0.0001 0.0000 -1.0000
vn -0.0001 0.0000 -1.0000
usemtl マテリアル.076
s 1
f 59/119/64 60/120/64 61/121/64
f 62/122/65 61/121/65 63/123/65
f 64/124/66 63/123/67 65/125/68
f 66/126/69 65/125/70 67/127/71
f 66/126/69 67/127/71 68/128/72
f 69/129/73 68/128/74 70/130/75
f 72/131/76 70/130/77 73/132/78
f 74/133/79 73/132/80 75/134/81
f 76/135/82 75/134/83 77/136/84
f 76/135/82 77/136/84 78/137/85
f 79/138/86 78/137/87 80/139/88
f 81/140/89 80/139/90 82/141/91
f 81/140/89 82/141/91 83/142/92
f 85/143/93 83/142/94 86/144/95
f 87/145/96 86/144/96 88/146/96
f 89/147/97 88/146/97 90/148/97
f 91/149/98 90/148/98 92/150/98
f 93/151/99 92/150/99 94/152/99
f 95/153/100 94/152/100 96/154/100
f 97/155/101 96/154/101 98/156/101
f 99/157/102 98/156/102 100/158/102
f 101/159/103 100/158/103 102/160/103
f 103/161/104 102/160/104 104/162/104
f 105/163/105 104/162/105 106/164/105
f 107/165/106 106/164/106 108/166/106
f 109/167/107 108/166/108 110/168/109
f 111/169/110 110/168/109 112/170/111
f 107/171/112 76/172/113 91/173/112
f 113/174/114 112/170/114 114/175/114
f 115/176/115 114/175/115 60/177/115
f 70/178/116 100/179/116 83/180/92
f 59/119/64 61/121/64 62/122/64
f 62/122/65 63/123/65 64/124/65
f 64/124/66 65/125/68 66/126/117
f 66/126/69 68/128/72 69/129/118
f 69/129/73 70/130/75 71/181/119
f 71/181/119 70/130/75 72/131/120
f 72/131/76 73/132/78 74/133/121
f 74/133/79 75/134/81 76/135/113
f 76/135/82 78/137/85 79/138/122
f 79/138/86 80/139/88 81/140/123
f 81/140/89 83/142/92 84/182/124
f 84/182/124 83/142/92 85/143/125
f 85/143/93 86/144/95 87/145/126
f 87/145/96 88/146/96 89/147/96
f 89/147/97 90/148/97 91/149/97
f 91/149/98 92/150/98 93/151/98
f 93/151/99 94/152/99 95/153/99
f 95/153/100 96/154/100 97/155/100
f 97/155/101 98/156/101 99/157/101
f 99/157/102 100/158/102 101/159/102
f 101/159/103 102/160/103 103/161/103
f 103/161/104 104/162/104 105/163/104
f 105/163/105 106/164/105 107/165/105
f 107/165/106 108/166/106 109/167/106
f 109/167/107 110/168/109 111/169/110
f 111/169/110 112/170/111 113/174/127
f 64/183/66 59/184/112 62/185/112
f 59/184/112 64/183/66 115/186/112
f 115/186/112 64/183/66 113/187/127
f 111/188/110 107/171/112 109/189/112
f 107/171/112 103/190/112 105/191/112
f 103/190/112 107/171/112 101/192/112
f 101/192/112 107/171/112 99/193/112
f 99/193/112 91/173/112 97/194/112
f 97/194/112 91/173/112 95/195/112
f 95/195/112 91/173/112 93/196/128
f 91/173/112 87/197/112 89/198/112
f 87/197/112 84/199/124 85/200/112
f 81/201/89 76/172/113 79/202/112
f 74/203/79 76/172/113 72/204/112
f 72/204/112 76/172/113 71/205/112
f 71/205/112 66/206/117 69/207/129
f 113/187/127 64/183/66 111/188/110
f 111/188/110 64/183/66 107/171/112
f 91/173/112 76/172/113 87/197/112
f 87/197/112 76/172/113 84/199/124
f 84/199/124 76/172/113 81/201/89
f 71/205/112 76/172/113 66/206/117
f 66/206/117 76/172/113 64/183/66
f 107/171/112 91/173/112 99/193/112
f 64/183/66 76/172/113 107/171/112
f 113/174/114 114/175/114 115/176/114
f 115/176/115 60/177/115 59/208/115
f 114/209/116 61/210/116 60/211/116
f 61/210/116 65/212/116 63/213/116
f 65/212/116 68/214/116 67/215/130
f 68/214/116 65/212/116 70/178/116
f 70/178/116 75/216/116 73/217/116
f 75/216/116 70/178/116 77/218/116
f 77/218/116 70/178/116 78/219/116
f 78/219/116 83/180/92 80/220/116
f 80/220/116 83/180/92 82/221/91
f 83/180/92 88/222/116 86/223/116
f 88/222/116 92/224/116 90/225/116
f 92/224/116 96/226/116 94/227/131
f 96/226/116 100/179/116 98/228/116
f 100/179/116 104/229/116 102/230/116
f 104/229/116 108/231/116 106/232/116
f 108/231/116 114/209/116 110/233/116
f 110/233/116 114/209/116 112/234/116
f 114/209/116 65/212/116 61/210/116
f 83/180/92 100/179/116 88/222/116
f 88/222/116 100/179/116 92/224/116
f 92/224/116 100/179/116 96/226/116
f 100/179/116 114/209/116 104/229/116
f 104/229/116 114/209/116 108/231/116
f 114/209/116 70/178/116 65/212/116
f 70/178/116 83/180/92 78/219/116
f 114/209/116 100/179/116 70/178/116
