# Blender v2.92.0 OBJ File: 'Sherman.blend'
# www.blender.org
mtllib ShermanMainGun.mtl
o 円柱.006
v -0.016180 3.508075 1.582750
v 0.039018 3.512130 4.182750
v 0.039018 3.512130 1.582750
v 0.091566 3.529507 4.182750
v 0.097779 3.532828 1.582750
v 0.153012 3.578156 4.182750
v 0.141421 3.566866 1.582750
v 0.184776 3.631751 4.182750
v 0.178781 3.616721 1.582750
v 0.199522 3.685097 4.182750
v 0.200213 3.692107 1.582750
v 0.193209 3.763216 4.182750
v 0.191164 3.769957 1.582750
v 0.166294 3.819401 4.182750
v 0.130131 3.861300 4.182750
v 0.153012 3.838418 1.582750
v 0.111114 3.874581 1.582750
v 0.076537 3.893063 4.182750
v 0.076537 3.893063 1.582750
v 0.023191 3.907809 4.182750
v 0.016180 3.908500 1.582750
v -0.039018 3.904444 4.182750
v -0.039018 3.904444 1.582750
v -0.091566 3.887068 4.182750
v -0.097779 3.883747 1.582750
v -0.153012 3.838418 4.182750
v -0.157482 3.832972 1.582750
v -0.191164 3.769957 4.182750
v -0.193209 3.763215 1.582750
v -0.200212 3.692107 4.182750
v -0.199522 3.685096 1.582750
v -0.184776 3.631750 4.182750
v -0.184776 3.631750 1.582750
v -0.157482 3.583602 4.182750
v -0.153012 3.578156 1.582750
v -0.111114 3.541993 4.182750
v -0.111114 3.541993 1.582750
v -0.076536 3.523511 4.182750
v -0.076536 3.523511 1.582750
v -0.023191 3.508765 4.182750
vt 0.825317 1.000000
vt 0.812500 0.500000
vt 0.862183 0.500000
vt 0.968750 0.500000
vt 1.000000 0.500000
vt 1.000000 1.000000
vt 0.968750 1.000000
vt 0.637817 1.000000
vt 0.612183 0.500000
vt 0.656250 0.500000
vt 0.924683 0.500000
vt 0.919067 1.000000
vt 0.875000 1.000000
vt 0.768433 0.500000
vt 0.762817 1.000000
vt 0.705933 0.500000
vt 0.700317 1.000000
vt 0.562500 0.500000
vt 0.593750 1.000000
vt 0.562500 1.000000
vt 0.518433 0.500000
vt 0.512817 1.000000
vt 0.468750 0.500000
vt 0.468750 1.000000
vt 0.424683 0.500000
vt 0.419067 1.000000
vt 0.362183 0.500000
vt 0.356567 1.000000
vt 0.299683 0.500000
vt 0.294067 1.000000
vt 0.237183 0.500000
vt 0.231567 1.000000
vt 0.187500 0.500000
vt 0.187500 1.000000
vt 0.143433 0.500000
vt 0.137817 1.000000
vt 0.093750 0.500000
vt 0.093750 1.000000
vt 0.062500 0.500000
vt 0.062500 1.000000
vt 0.028269 0.341844
vt 0.012720 0.277618
vt 0.020213 0.184712
vt 0.062689 0.101746
vt 0.133682 0.041351
vt 0.203178 0.014612
vt 0.269204 0.011891
vt 0.341844 0.028269
vt 0.383337 0.050447
vt 0.431948 0.095211
vt 0.477333 0.176622
vt 0.488109 0.269204
vt 0.462634 0.358863
vt 0.419706 0.419706
vt 0.366318 0.458649
vt 0.296822 0.485388
vt 0.230796 0.488109
vt 0.158156 0.471731
vt 0.116663 0.449553
vt 0.068053 0.404789
vt 0.018433 0.500000
vt 0.012817 1.000000
vt 0.777617 0.012720
vt 0.703178 0.014612
vt 0.641137 0.037366
vt 0.568052 0.095211
vt 0.522667 0.176622
vt 0.511891 0.269204
vt 0.528269 0.341844
vt 0.562689 0.398254
vt 0.616663 0.449553
vt 0.658156 0.471731
vt 0.722383 0.487280
vt 0.796822 0.485388
vt 0.858863 0.462634
vt 0.931948 0.404789
vt 0.971731 0.341844
vt 0.987280 0.277617
vt 0.979787 0.184712
vt 0.949553 0.116663
vt 0.904789 0.068052
vt 0.841844 0.028269
vn 0.8603 -0.5099 0.0010
vn 0.0631 -0.9980 0.0002
vn 0.7570 0.6534 0.0009
vn 0.3236 -0.9462 -0.0002
vn 0.6184 -0.7859 0.0006
vn 0.9627 -0.2706 -0.0006
vn 0.8002 -0.5997 -0.0010
vn 0.9952 0.0980 0.0000
vn 0.8865 0.4628 -0.0003
vn 0.4951 0.8688 0.0004
vn 0.6534 0.7570 -0.0009
vn 0.2566 0.9665 -0.0002
vn -0.0631 0.9980 0.0002
vn -0.3236 0.9462 -0.0002
vn -0.6344 0.7730 0.0000
vn -0.8819 0.4714 0.0000
vn -0.9952 0.0980 -0.0000
vn -0.9665 -0.2566 0.0002
vn -0.8649 -0.5020 -0.0002
vn -0.6611 -0.7503 0.0002
vn -0.4714 -0.8819 0.0000
vn 0.0000 0.0000 -1.0000
vn -0.2566 -0.9665 -0.0002
vn 0.0000 0.0000 1.0000
usemtl マテリアル.001
s off
f 9/1/1 8/2/1 6/3/1
f 2/4/2 40/5/2 1/6/2 3/7/2
f 16/8/3 15/9/3 14/10/3
f 4/11/4 2/4/4 3/7/4 5/12/4
f 6/3/5 4/11/5 5/12/5 7/13/5
f 10/14/6 8/2/6 9/1/6 11/15/6
f 7/13/7 9/1/7 6/3/7
f 12/16/8 10/14/8 11/15/8 13/17/8
f 14/10/9 12/16/9 13/17/9 16/8/9
f 18/18/10 15/9/10 17/19/10 19/20/10
f 16/8/11 17/19/11 15/9/11
f 20/21/12 18/18/12 19/20/12 21/22/12
f 22/23/13 20/21/13 21/22/13 23/24/13
f 24/25/14 22/23/14 23/24/14 25/26/14
f 26/27/15 24/25/15 25/26/15 27/28/15
f 28/29/16 26/27/16 27/28/16 29/30/16
f 30/31/17 28/29/17 29/30/17 31/32/17
f 32/33/18 30/31/18 31/32/18 33/34/18
f 34/35/19 32/33/19 33/34/19 35/36/19
f 36/37/20 34/35/20 35/36/20 37/38/20
f 38/39/21 36/37/21 37/38/21 39/40/21
f 33/41/22 31/42/22 29/43/22 27/44/22 25/45/22 23/46/22 21/47/22 19/48/22 17/49/22 16/50/22 13/51/22 11/52/22 9/53/22 7/54/22 5/55/22 3/56/22 1/57/22 39/58/22 37/59/22 35/60/22
f 40/61/23 38/39/23 39/40/23 1/62/23
f 20/63/24 22/64/24 24/65/24 26/66/24 28/67/24 30/68/24 32/69/24 34/70/24 36/71/24 38/72/24 40/73/24 2/74/24 4/75/24 6/76/24 8/77/24 10/78/24 12/79/24 14/80/24 15/81/24 18/82/24
o 円柱.007
v -0.020224 3.458022 4.136393
v 0.048773 3.463091 4.536392
v 0.048773 3.463091 4.136393
v 0.114458 3.484812 4.536392
v 0.122224 3.488963 4.136393
v 0.191265 3.545624 4.536392
v 0.176777 3.531511 4.136393
v 0.230970 3.612616 4.536392
v 0.223476 3.593830 4.136393
v 0.249402 3.679299 4.536392
v 0.250266 3.688063 4.136393
v 0.241511 3.776947 4.536392
v 0.238955 3.785375 4.136393
v 0.207867 3.847180 4.536392
v 0.162664 3.899553 4.536392
v 0.191265 3.870951 4.136393
v 0.138893 3.916155 4.136393
v 0.095671 3.939257 4.536392
v 0.095671 3.939257 4.136393
v 0.028988 3.957690 4.536392
v 0.020224 3.958553 4.136393
v -0.048773 3.953484 4.536392
v -0.048773 3.953484 4.136393
v -0.114458 3.931763 4.536392
v -0.122224 3.927612 4.136393
v -0.191266 3.870951 4.536392
v -0.196852 3.864143 4.136393
v -0.238955 3.785375 4.536392
v -0.241511 3.776947 4.136393
v -0.250266 3.688062 4.536392
v -0.249402 3.679299 4.136393
v -0.230970 3.612616 4.536392
v -0.230970 3.612616 4.136393
v -0.196852 3.552431 4.536392
v -0.191265 3.545623 4.136393
v -0.138892 3.500420 4.536392
v -0.138892 3.500420 4.136393
v -0.095671 3.477317 4.536392
v -0.095671 3.477317 4.136393
v -0.028988 3.458885 4.536392
vt 0.825317 1.000000
vt 0.812500 0.500000
vt 0.862183 0.500000
vt 0.968750 0.500000
vt 1.000000 0.500000
vt 1.000000 1.000000
vt 0.968750 1.000000
vt 0.637817 1.000000
vt 0.612183 0.500000
vt 0.656250 0.500000
vt 0.924683 0.500000
vt 0.919067 1.000000
vt 0.875000 1.000000
vt 0.768433 0.500000
vt 0.762817 1.000000
vt 0.705933 0.500000
vt 0.700317 1.000000
vt 0.562500 0.500000
vt 0.593750 1.000000
vt 0.562500 1.000000
vt 0.518433 0.500000
vt 0.512817 1.000000
vt 0.468750 0.500000
vt 0.468750 1.000000
vt 0.424683 0.500000
vt 0.419067 1.000000
vt 0.362183 0.500000
vt 0.356567 1.000000
vt 0.299683 0.500000
vt 0.294067 1.000000
vt 0.237183 0.500000
vt 0.231567 1.000000
vt 0.187500 0.500000
vt 0.187500 1.000000
vt 0.143433 0.500000
vt 0.137817 1.000000
vt 0.093750 0.500000
vt 0.093750 1.000000
vt 0.062500 0.500000
vt 0.062500 1.000000
vt 0.028269 0.341844
vt 0.012720 0.277618
vt 0.020213 0.184712
vt 0.062689 0.101746
vt 0.133682 0.041351
vt 0.203178 0.014612
vt 0.269204 0.011891
vt 0.341844 0.028269
vt 0.383337 0.050447
vt 0.431948 0.095211
vt 0.477333 0.176622
vt 0.488109 0.269204
vt 0.462634 0.358863
vt 0.419706 0.419706
vt 0.366318 0.458649
vt 0.296822 0.485388
vt 0.230796 0.488109
vt 0.158156 0.471731
vt 0.116663 0.449553
vt 0.068053 0.404789
vt 0.018433 0.500000
vt 0.012817 1.000000
vt 0.777617 0.012720
vt 0.703178 0.014612
vt 0.641137 0.037366
vt 0.568052 0.095211
vt 0.522667 0.176622
vt 0.511891 0.269204
vt 0.528269 0.341844
vt 0.562689 0.398254
vt 0.616663 0.449553
vt 0.658156 0.471731
vt 0.722383 0.487280
vt 0.796822 0.485388
vt 0.858863 0.462634
vt 0.931948 0.404789
vt 0.971731 0.341844
vt 0.987280 0.277617
vt 0.979787 0.184712
vt 0.949553 0.116663
vt 0.904789 0.068052
vt 0.841844 0.028269
vn 0.8602 -0.5098 0.0078
vn 0.0631 -0.9980 0.0018
vn 0.7570 0.6534 0.0074
vn 0.3236 -0.9462 -0.0018
vn 0.6184 -0.7859 0.0046
vn 0.9627 -0.2705 -0.0046
vn 0.8002 -0.5997 -0.0078
vn 0.9952 0.0980 0.0000
vn 0.8865 0.4628 -0.0026
vn 0.4951 0.8688 0.0033
vn 0.6534 0.7570 -0.0074
vn 0.2566 0.9665 -0.0018
vn -0.0631 0.9980 0.0018
vn -0.3236 0.9462 -0.0018
vn -0.6344 0.7730 0.0000
vn -0.8819 0.4714 0.0000
vn -0.9952 0.0980 0.0000
vn -0.9665 -0.2566 0.0018
vn -0.8649 -0.5020 -0.0018
vn -0.6611 -0.7503 0.0018
vn -0.4714 -0.8819 0.0000
vn 0.0000 0.0000 -1.0000
vn -0.2566 -0.9665 -0.0018
vn 0.0000 0.0000 1.0000
usemtl マテリアル.003
s off
f 49/83/25 48/84/25 46/85/25
f 42/86/26 80/87/26 41/88/26 43/89/26
f 56/90/27 55/91/27 54/92/27
f 44/93/28 42/86/28 43/89/28 45/94/28
f 46/85/29 44/93/29 45/94/29 47/95/29
f 50/96/30 48/84/30 49/83/30 51/97/30
f 47/95/31 49/83/31 46/85/31
f 52/98/32 50/96/32 51/97/32 53/99/32
f 54/92/33 52/98/33 53/99/33 56/90/33
f 58/100/34 55/91/34 57/101/34 59/102/34
f 56/90/35 57/101/35 55/91/35
f 60/103/36 58/100/36 59/102/36 61/104/36
f 62/105/37 60/103/37 61/104/37 63/106/37
f 64/107/38 62/105/38 63/106/38 65/108/38
f 66/109/39 64/107/39 65/108/39 67/110/39
f 68/111/40 66/109/40 67/110/40 69/112/40
f 70/113/41 68/111/41 69/112/41 71/114/41
f 72/115/42 70/113/42 71/114/42 73/116/42
f 74/117/43 72/115/43 73/116/43 75/118/43
f 76/119/44 74/117/44 75/118/44 77/120/44
f 78/121/45 76/119/45 77/120/45 79/122/45
f 73/123/46 71/124/46 69/125/46 67/126/46 65/127/46 63/128/46 61/129/46 59/130/46 57/131/46 56/132/46 53/133/46 51/134/46 49/135/46 47/136/46 45/137/46 43/138/46 41/139/46 79/140/46 77/141/46 75/142/46
f 80/143/47 78/121/47 79/122/47 41/144/47
f 60/145/48 62/146/48 64/147/48 66/148/48 68/149/48 70/150/48 72/151/48 74/152/48 76/153/48 78/154/48 80/155/48 42/156/48 44/157/48 46/158/48 48/159/48 50/160/48 52/161/48 54/162/48 55/163/48 58/164/48
